<svg id="visual" viewBox="0 0 900 600" width="900" height="600" xmlns="http://www.w3.org/2000/svg" xmlns:xlink="http://www.w3.org/1999/xlink" version="1.1"><rect x="0" y="0" width="900" height="600" fill="#001220"></rect><defs><linearGradient id="grad1_0" x1="33.3%" y1="100%" x2="100%" y2="0%"><stop offset="20%" stop-color="#fbae3c" stop-opacity="1"></stop><stop offset="80%" stop-color="#fbae3c" stop-opacity="1"></stop></linearGradient></defs><defs><linearGradient id="grad1_1" x1="33.3%" y1="100%" x2="100%" y2="0%"><stop offset="20%" stop-color="#fbae3c" stop-opacity="1"></stop><stop offset="80%" stop-color="#f48350" stop-opacity="1"></stop></linearGradient></defs><defs><linearGradient id="grad1_2" x1="33.3%" y1="100%" x2="100%" y2="0%"><stop offset="20%" stop-color="#d96162" stop-opacity="1"></stop><stop offset="80%" stop-color="#f48350" stop-opacity="1"></stop></linearGradient></defs><defs><linearGradient id="grad1_3" x1="33.3%" y1="100%" x2="100%" y2="0%"><stop offset="20%" stop-color="#d96162" stop-opacity="1"></stop><stop offset="80%" stop-color="#af4b6d" stop-opacity="1"></stop></linearGradient></defs><defs><linearGradient id="grad1_4" x1="33.3%" y1="100%" x2="100%" y2="0%"><stop offset="20%" stop-color="#7c3e6b" stop-opacity="1"></stop><stop offset="80%" stop-color="#af4b6d" stop-opacity="1"></stop></linearGradient></defs><defs><linearGradient id="grad1_5" x1="33.3%" y1="100%" x2="100%" y2="0%"><stop offset="20%" stop-color="#7c3e6b" stop-opacity="1"></stop><stop offset="80%" stop-color="#49335c" stop-opacity="1"></stop></linearGradient></defs><defs><linearGradient id="grad1_6" x1="33.3%" y1="100%" x2="100%" y2="0%"><stop offset="20%" stop-color="#1d2540" stop-opacity="1"></stop><stop offset="80%" stop-color="#49335c" stop-opacity="1"></stop></linearGradient></defs><defs><linearGradient id="grad1_7" x1="33.3%" y1="100%" x2="100%" y2="0%"><stop offset="20%" stop-color="#1d2540" stop-opacity="1"></stop><stop offset="80%" stop-color="#001220" stop-opacity="1"></stop></linearGradient></defs><defs><linearGradient id="grad2_0" x1="0%" y1="100%" x2="66.7%" y2="0%"><stop offset="20%" stop-color="#fbae3c" stop-opacity="1"></stop><stop offset="80%" stop-color="#fbae3c" stop-opacity="1"></stop></linearGradient></defs><defs><linearGradient id="grad2_1" x1="0%" y1="100%" x2="66.7%" y2="0%"><stop offset="20%" stop-color="#f48350" stop-opacity="1"></stop><stop offset="80%" stop-color="#fbae3c" stop-opacity="1"></stop></linearGradient></defs><defs><linearGradient id="grad2_2" x1="0%" y1="100%" x2="66.7%" y2="0%"><stop offset="20%" stop-color="#f48350" stop-opacity="1"></stop><stop offset="80%" stop-color="#d96162" stop-opacity="1"></stop></linearGradient></defs><defs><linearGradient id="grad2_3" x1="0%" y1="100%" x2="66.7%" y2="0%"><stop offset="20%" stop-color="#af4b6d" stop-opacity="1"></stop><stop offset="80%" stop-color="#d96162" stop-opacity="1"></stop></linearGradient></defs><defs><linearGradient id="grad2_4" x1="0%" y1="100%" x2="66.7%" y2="0%"><stop offset="20%" stop-color="#af4b6d" stop-opacity="1"></stop><stop offset="80%" stop-color="#7c3e6b" stop-opacity="1"></stop></linearGradient></defs><defs><linearGradient id="grad2_5" x1="0%" y1="100%" x2="66.7%" y2="0%"><stop offset="20%" stop-color="#49335c" stop-opacity="1"></stop><stop offset="80%" stop-color="#7c3e6b" stop-opacity="1"></stop></linearGradient></defs><defs><linearGradient id="grad2_6" x1="0%" y1="100%" x2="66.7%" y2="0%"><stop offset="20%" stop-color="#49335c" stop-opacity="1"></stop><stop offset="80%" stop-color="#1d2540" stop-opacity="1"></stop></linearGradient></defs><defs><linearGradient id="grad2_7" x1="0%" y1="100%" x2="66.7%" y2="0%"><stop offset="20%" stop-color="#001220" stop-opacity="1"></stop><stop offset="80%" stop-color="#1d2540" stop-opacity="1"></stop></linearGradient></defs><g transform="translate(900, 600)"><path d="M-243.4 0C-234.6 -28.8 -225.8 -57.5 -216.2 -89.5C-206.6 -121.6 -196.2 -156.8 -172.1 -172.1C-148 -187.4 -110.2 -182.7 -79.2 -191.2C-48.2 -199.8 -24.1 -221.6 0 -243.4L0 0Z" fill="#0c1c30"></path><path d="M-213 0C-205.3 -25.2 -197.6 -50.3 -189.2 -78.4C-180.8 -106.4 -171.7 -137.2 -150.6 -150.6C-129.5 -164 -96.4 -159.9 -69.3 -167.3C-42.2 -174.8 -21.1 -193.9 0 -213L0 0Z" fill="#312c4f"></path><path d="M-182.5 0C-175.9 -21.6 -169.3 -43.2 -162.1 -67.2C-154.9 -91.2 -147.1 -117.6 -129.1 -129.1C-111 -140.5 -82.6 -137 -59.4 -143.4C-36.2 -149.8 -18.1 -166.2 0 -182.5L0 0Z" fill="#623965"></path><path d="M-152.1 0C-146.6 -18 -141.1 -36 -135.1 -56C-129.1 -76 -122.6 -98 -107.6 -107.6C-92.5 -117.1 -68.9 -114.2 -49.5 -119.5C-30.2 -124.9 -15.1 -138.5 0 -152.1L0 0Z" fill="#96446e"></path><path d="M-121.7 0C-117.3 -14.4 -112.9 -28.8 -108.1 -44.8C-103.3 -60.8 -98.1 -78.4 -86 -86C-74 -93.7 -55.1 -91.3 -39.6 -95.6C-24.1 -99.9 -12.1 -110.8 0 -121.7L0 0Z" fill="#c55469"></path><path d="M-91.3 0C-88 -10.8 -84.7 -21.6 -81.1 -33.6C-77.5 -45.6 -73.6 -58.8 -64.5 -64.5C-55.5 -70.3 -41.3 -68.5 -29.7 -71.7C-18.1 -74.9 -9 -83.1 0 -91.3L0 0Z" fill="#e9705a"></path><path d="M-60.8 0C-58.6 -7.2 -56.4 -14.4 -54 -22.4C-51.6 -30.4 -49 -39.2 -43 -43C-37 -46.8 -27.5 -45.7 -19.8 -47.8C-12.1 -49.9 -6 -55.4 0 -60.8L0 0Z" fill="#fa9845"></path><path d="M-30.4 0C-29.3 -3.6 -28.2 -7.2 -27 -11.2C-25.8 -15.2 -24.5 -19.6 -21.5 -21.5C-18.5 -23.4 -13.8 -22.8 -9.9 -23.9C-6 -25 -3 -27.7 0 -30.4L0 0Z" fill="#fbae3c"></path></g><g transform="translate(0, 0)"><path d="M243.4 0C227.6 25.7 211.8 51.4 203.3 84.2C194.7 117 193.5 156.9 172.1 172.1C150.6 187.3 109 177.9 76.9 185.7C44.9 193.5 22.4 218.4 0 243.4L0 0Z" fill="#0c1c30"></path><path d="M213 0C199.1 22.5 185.3 45 177.8 73.7C170.4 102.4 169.3 137.2 150.6 150.6C131.8 163.9 95.4 155.7 67.3 162.5C39.3 169.3 19.6 191.1 0 213L0 0Z" fill="#312c4f"></path><path d="M182.5 0C170.7 19.3 158.8 38.6 152.4 63.1C146.1 87.7 145.2 117.6 129.1 129.1C113 140.5 81.7 133.4 57.7 139.3C33.6 145.1 16.8 163.8 0 182.5L0 0Z" fill="#623965"></path><path d="M152.1 0C142.2 16.1 132.4 32.1 127 52.6C121.7 73.1 121 98 107.6 107.6C94.2 117.1 68.1 111.2 48.1 116.1C28 120.9 14 136.5 0 152.1L0 0Z" fill="#96446e"></path><path d="M121.7 0C113.8 12.9 105.9 25.7 101.6 42.1C97.4 58.5 96.8 78.4 86 86C75.3 93.7 54.5 89 38.5 92.8C22.4 96.7 11.2 109.2 0 121.7L0 0Z" fill="#c55469"></path><path d="M91.3 0C85.3 9.6 79.4 19.3 76.2 31.6C73 43.9 72.6 58.8 64.5 64.5C56.5 70.2 40.9 66.7 28.8 69.6C16.8 72.6 8.4 81.9 0 91.3L0 0Z" fill="#e9705a"></path><path d="M60.8 0C56.9 6.4 52.9 12.9 50.8 21C48.7 29.2 48.4 39.2 43 43C37.7 46.8 27.2 44.5 19.2 46.4C11.2 48.4 5.6 54.6 0 60.8L0 0Z" fill="#fa9845"></path><path d="M30.4 0C28.4 3.2 26.5 6.4 25.4 10.5C24.3 14.6 24.2 19.6 21.5 21.5C18.8 23.4 13.6 22.2 9.6 23.2C5.6 24.2 2.8 27.3 0 30.4L0 0Z" fill="#fbae3c"></path></g></svg>