<?xml version="1.0" encoding="utf-8"?>
<svg viewBox="1968.2317 -680.7897 2016.2839 1883.6256" xmlns="http://www.w3.org/2000/svg">
  <g transform="matrix(1, 0, 0, 1, 976.1159057617188, -1810.6520996093748)">
    <g>
      <g>
        <path style="fill:#FC9500;" d="M2790.349,1324.096c290.886,300.656,189.747,822.931-270.001,1267.718 c-183.605,177.6-377.657,297.698-563.085,358.644c-45.453,14.984-90.328,26.396-134.58,34.172 c-226.468,40.232-432.006-13.718-578.221-164.863c-95.821-99.11-147.999-222.378-158.478-359.054 c-21.329-278.208,130.179-612.008,438.401-910.198c414.456-400.979,874.087-507.327,1173.717-304.067 C2730.9,1268.62,2761.715,1294.457,2790.349,1324.096z"/>
      </g>
      <g style="opacity:0.3;">
        <path style="fill:#232323;" d="M2520.328,2591.811c-183.6,177.6-377.65,297.7-563.05,358.65c-45.449,15-90.349,26.4-134.6,34.15 c-226.45,40.25-432-13.7-578.2-164.85c-44.1-45.6-78.95-96.35-104.75-151.15c-20.25-42.95-34.901-88.35-44.05-135.8 c22.45,44.1,44.399,53.85,66.799,49.5c31.1-6.05,63.051-39.25,98.151-45.65c73.349-13.35,203.349,56.65,313.6,103.35 c110.3,46.65,19.75-66.7,163.099-236.7c143.301-170,136.65-16.65,310,22.15c173.301,38.8,86.65-105.45,156.5-212.15 c69.85-106.65,120.15-110,178.65-178.45c58.5-68.5-18.5-138.2,151.45-268.25c126.35-96.7,141.1-329.05,140.35-441.9 c9.099,5.4,17.999,11.1,26.8,17.05c70.801,58.95,91.25,133.55,75.3,204c11.801,19.05,25.45,37.05,34.9,57.3 c9.85,21.2,14.8,46,6.851,67.95c-7.95,21.95-31.7,39.05-54.401,33.75c-11.2-2.65-20.399-9.95-27.7-19.1 c-1.749,37.85,6,75.8,24.1,110.25c62.95,119.85,88.7,280.45-51.4,289.8c-35.699,2.4-96.15-93.1-156.45-61.9 c-27.2,14.05-37.4,42.4-36.349,57.05c9.199,127.45,19.75,190.95-87.551,212.8c-22.05,3.15-42,7.5-59.7,13.25 c0.45,20.05,3.2,40.15,0.25,59.95c-3.55,23.7-18.65,48.3-42.3,52.15c-4.3,0.7-8.6,0.7-12.8,0.15 c-14.249-1.85-27.899-9.55-41.3-15.7c-0.449,3.15-0.8,6.35-1,9.65c1.801,134.75-98.75,261.3-249.2,226.6 c-10.05-4.1-19.85-7.85-29.349-11.35c-72.1-26-129.351-32.9-175.3-22.4c-49.45,11.2-85.8,42.75-113.25,92.45 c-7.2,26.55-10.801,55.25-10.701,86.25c0.05,0.35,0.05,0.7,0.1,1.05c3.75,46.7,45.1,81.3,91.55,75.15 c12.35-1.65,24.8-3.6,37.3-5.8c44.25-7.8,89.15-19.2,134.6-34.2c185.4-60.95,379.451-181.05,563.05-358.65 c263-254.4,408.65-534.2,430.65-783.35C2977.027,1957.361,2830.027,2292.161,2520.328,2591.811z"/>
      </g>
      <g style="opacity:0.3;">
        <path style="fill:#822C43;" d="M1162.477,2582.311c-22.4,4.35-44.349-5.4-66.799-49.5c-4.601-23.55-7.8-47.6-9.7-72.1 c-2.95-38.3-2.6-77.6,1-117.8C1095.178,2429.161,1120.178,2509.861,1162.477,2582.311z"/>
        <path style="fill:#232323;" d="M1153.254,2585.729c-22.755,0-41.956-16.724-59.803-51.787l-0.226-0.654 c-4.54-23.237-7.816-47.593-9.739-72.383c-2.941-38.179-2.604-77.949,1.002-118.218l4.979-0.01 c8.26,86.89,33.551,167.09,75.17,238.374l1.776,3.042l-3.459,0.674C1159.649,2585.407,1156.415,2585.729,1153.254,2585.729z M1098.064,2531.984c23.137,45.288,44.139,50.547,60.433,48.447c-36.682-63.784-60.49-134.556-70.934-210.757 c-1.665,30.903-1.365,61.357,0.907,90.845C1090.368,2484.997,1093.595,2509.04,1098.064,2531.984z"/>
      </g>
      <g>
        <g>
          <path style="fill:#FF40B2;" d="M2098.23,1187.816c-187.765,59.101-385.402,180.423-573.844,362.699 c-308.222,298.19-459.73,631.99-438.401,910.198c40.585,154.545,139.749,215.438,286.131,200.783 c35.478-3.571,71.045,8.659,96.683,33.385c17.586,16.886,34.336,37.055,50.735,58.583 c59.767,89.187,182.372,65.788,171.227-64.14c-0.086-30.961,3.477-59.667,10.677-86.222 c27.485-49.701,63.794-81.258,113.281-92.459c45.929-10.526,103.202-3.596,175.268,22.419 c9.499,3.489,19.303,7.205,29.383,11.319c150.423,34.715,251.005-91.856,249.199-226.616 c4.326-68.186,60.384-105.742,156.845-119.44c107.294-21.86,96.74-85.314,87.538-212.797 c-1.057-14.639,9.152-42.998,36.331-57.052c60.321-31.191,120.749,64.317,156.491,61.927 c140.079-9.367,114.345-169.988,51.376-289.796c-32.951-62.72-31.715-137.224-0.975-201.08 c40.098-83.362,29.496-180.172-58.071-253.079C2534.609,1135.578,2323.604,1116.82,2098.23,1187.816z M1751.459,1872.719 c94.829-10.628,163.722-38.578,158.375-116.007c2.829-49.757,23.348-86.079,72.801-100.547 c21.506-6.308,40.762-18.781,53.663-37.158c54.836-78.334,125.201-133.216,219.31-37.295 c-11.63,166.617-107.673,257.481-171.375,335.94c-162.174,199.744-448.797,240.58-448.797,240.58 C1525.935,2076.247,1641.58,1888.673,1751.459,1872.719z"/>
        </g>
      </g>
      <g style="opacity:0.3;">
        <g>
          <path style="fill:#822C43;" d="M1095.678,2532.811c-2.9-5.55-5.751-11.7-8.6-18.45c0.2,14,0.85,27.9,1.9,41.65 c11.95,45.5,28.95,82.9,50.75,112.6C1119.478,2625.661,1104.827,2580.261,1095.678,2532.811z"/>
          <path style="fill:#232323;" d="M1137.713,2670.09c-22.067-30.059-39.277-68.228-51.154-113.442 c-1.145-14.458-1.786-28.525-1.981-42.251l-0.182-12.813l4.985,11.807c2.925,6.929,5.709,12.901,8.512,18.262l0.239,0.684 c9.132,47.368,23.888,92.856,43.856,135.21L1137.713,2670.09z M1089.875,2526.76c0.32,9.624,0.854,19.355,1.595,29.063 c8.419,31.938,19.611,60.444,33.368,84.961c-13.8-34.185-24.379-70.093-31.545-107.139 C1092.152,2531.452,1091.017,2529.167,1089.875,2526.76z"/>
        </g>
      </g>
      <g style="opacity:0.3;">
        <g>
          <path style="fill:#232323;" d="M2747.978,1302.211c4.299,38.75-3.55,78.1-21.2,114.8c-30.751,63.85-31.95,138.4,1,201.1 c2.5,4.8,4.95,9.65,7.35,14.55c-6.6-44.75,0.85-91.25,21.05-133.15C2786.728,1436.061,2787.828,1364.761,2747.978,1302.211z"/>
        </g>
        <g>
          <path style="fill:#232323;" d="M2705.777,1990.411c-35.75,2.4-96.199-93.15-156.499-61.95c-27.2,14.05-37.4,42.45-36.35,57.05 c9.25,127.5,19.8,190.95-87.5,212.8c-96.5,13.7-152.55,51.25-156.85,119.45c1.8,134.75-98.8,261.35-249.199,226.6 c-10.1-4.1-19.901-7.8-29.401-11.3c-72.05-26-129.349-32.95-175.25-22.4c-49.5,11.2-85.8,42.75-113.3,92.45 c-7.2,26.55-10.75,55.25-10.65,86.2c11.151,129.95-111.5,153.35-171.25,64.15c-16.4-21.55-33.15-41.7-50.75-58.6 c-25.599-24.7-61.2-36.95-96.65-33.35c-146.397,14.65-245.545-46.247-286.147-200.789c1.15-0.444,0.783-0.302,1.934-0.746 c50.886,94.154,137.736,130.757,254.813,119.035c35.5-3.6,71.05,8.65,96.701,33.35c17.549,16.9,34.299,37.05,50.699,58.6 c59.8,89.2,182.4,65.8,171.25-64.15c-0.1-30.95,3.45-59.65,10.65-86.2c27.5-49.7,63.8-81.25,113.3-92.45 c45.95-10.55,103.199-3.6,175.25,22.4c9.5,3.5,19.299,7.2,29.399,11.3c62.638,14.48,121.98-2.029,169.789-35.944 c9.818-6.965,17.124-17.178,19.909-28.889c0.017-0.072,0.034-0.145,0.052-0.217c3.651-15.857,1.248-32.865-6.11-47.319 c-3.741-7.349,1.011-16.121,9.248-16.53c19.152-0.95,41.259-1.751,56.912-2.851c0.05,1.65,0.05,3.3-0.05,5 c19.9-36.65,31.05-77.3,30.5-117.2c4.351-68.2,29.351-88.4,125.8-102.1c107.301-21.85,96.75-85.3,87.55-212.8 c-1.05-14.6,9.15-43,36.3-57.05c60.35-31.2,120.751,64.35,156.5,61.95c100.3-6.7,115.601-90.95,93.101-182.25 C2822.878,1841.661,2836.327,1981.711,2705.777,1990.411z"/>
        </g>
      </g>
      <g style="opacity:0.3;">
        <g>
          <path style="fill:#822C43;" d="M2735.127,1632.661c3.4,23.45,10.65,46.4,22,67.95c4.3,8.2,8.401,16.55,12.351,25.05 C2761.778,1694.561,2749.727,1662.611,2735.127,1632.661z"/>
          <path style="fill:#232323;" d="M2767.211,1726.716c-4.044-8.701-8.181-17.095-12.298-24.942 c-11.254-21.372-18.744-44.502-22.26-68.755l-2.298-15.85l7.02,14.399c15.129,31.03,27.069,63.359,34.53,93.491 L2767.211,1726.716z M2741.503,1652.375c4.025,16.416,9.994,32.183,17.836,47.07c0.06,0.117,0.118,0.229,0.178,0.342 C2754.508,1684.137,2748.448,1668.185,2741.503,1652.375z"/>
        </g>
      </g>
      <g style="opacity:0.55;">
        <g>
          <path style="fill:#FFFFFF;" d="M2698.128,1246.461c-163.501-110.9-374.501-129.65-599.9-58.65 c-187.75,59.1-385.4,180.45-573.85,362.7c-308.201,298.2-459.7,632-438.4,910.2c3.45,13.1,7.3,25.55,11.6,37.3 c-21-278.05,130.551-611.5,438.45-909.45c188.45-182.3,386.1-303.6,573.85-362.7c225.4-71,436.4-52.25,599.9,58.6 c31.051,25.85,52.45,54.75,65.3,84.95C2766.578,1325.561,2742.027,1283.011,2698.128,1246.461z"/>
        </g>
      </g>
      <g style="opacity:0.4;">
        <g>
          <path style="fill:#792937;" d="M2758.721,1293.741c10.818,9.625,21.375,19.722,31.628,30.355 c16.594,17.192,31.922,35.057,45.936,53.656c-13.18-23.79-32.436-47.743-58.745-71.828 C2771.323,1301.746,2765.061,1297.629,2758.721,1293.741z"/>
          <path style="fill:#232323;" d="M2834.289,1379.255c-13.773-18.276-29.163-36.25-45.737-53.418 c-9.929-10.303-20.524-20.469-31.492-30.225l2.967-4.004c5.512,3.379,11.343,7.153,18.909,12.241 c26.006,23.765,45.939,48.145,59.536,72.691L2834.289,1379.255z"/>
        </g>
      </g>
      <g style="opacity:0.55;">
        <path style="fill:#FFFFFF;" d="M2092.763,1908.884c-323.611,341.111-620.446,289.378-594.892,86.195 c-105.941,313.309,356.631,262.541,616.107-40.918c241.605-260.187,271.222-525-27.549-496.386 C2338.978,1467.436,2275.559,1708.955,2092.763,1908.884z"/>
      </g>
      <g style="opacity:0.55;">
        <g>
          <path style="fill:#FFFFFF;" d="M1372.116,2661.496c-12.579,1.262-24.746,1.975-36.669,2.107 c28.447,6.328,59.701,8.271,93.652,5.846C1411.231,2662.365,1391.687,2659.556,1372.116,2661.496z"/>
          <path style="fill:#232323;" d="M1401.64,2672.946c-23.71,0-46.064-2.305-66.736-6.904l-21.132-4.702l21.647-0.239 c11.769-0.132,23.69-0.815,36.448-2.09l0.002-0.005c19.721-1.934,39.83,0.859,58.152,8.12l10.183,4.038l-10.927,0.781 C1419.883,2672.614,1410.661,2672.946,1401.64,2672.946z M1358.536,2665.163c18.08,2.441,37.264,3.286,57.361,2.51 c-14.093-3.857-28.923-5.146-43.534-3.687C1367.653,2664.455,1363.056,2664.845,1358.536,2665.163z"/>
        </g>
      </g>
      <g>
        <path style="fill:#232323;" d="M1682.552,3013.488c-177.363,0-333.755-62.729-449.684-182.554 c-144.968-149.844-196.699-361.23-145.663-595.225c50.747-232.666,202.035-480.132,425.997-696.807 c226.451-219.087,470.146-356.372,704.739-397.021c231.142-40.034,438.544,20.693,583.992,171.025l0,0 c145.457,150.351,198.971,361.406,150.685,594.292c-49.011,236.382-194.606,477.119-421.044,696.191 s-471.858,356.626-709.729,397.793C1774.272,3009.421,1727.727,3013.488,1682.552,3013.488z M2357.355,1161.73 c-43.185,0-87.87,3.96-133.907,11.938c-228.191,39.536-466.034,173.848-687.816,388.418 c-219.442,212.305-367.504,453.975-416.91,680.498c-48.661,223.105,0.11,424.087,137.33,565.918 c137.805,142.441,336.788,199.565,560.292,160.898c228.162-39.487,474.203-177.705,692.801-389.194 c218.599-211.489,364.877-452.827,411.887-679.561c46.052-222.104-4.479-422.871-142.283-565.307 C2667.754,1220.612,2523.814,1161.73,2357.355,1161.73z"/>
      </g>
      <g>
        <path style="fill:#232323;" d="M1650.331,2174.577c-52.898,0-96.969-16.68-127.726-51.235 c-38.185-42.949-50.306-104.141-33.263-167.881c2.3-8.608,11.14-13.701,19.747-11.416c8.605,2.3,13.716,11.142,11.415,19.746 c-14.192,53.081-4.641,103.418,26.201,138.11c77.955,87.598,273.92,29.141,465.951-138.974 c96.736-84.683,169.303-176.626,204.335-258.901c33.032-77.578,31.29-143.061-4.905-184.394 c-38.462-43.989-107.463-53.081-194.302-25.576c-8.499,2.686-17.555-2.012-20.245-10.508 c-2.689-8.491,2.015-17.554,10.507-20.244c99.817-31.602,180.904-19.15,228.317,35.088 c44.795,51.152,48.458,128.672,10.308,218.271c-37.428,87.905-111.001,181.455-212.767,270.532 C1894.772,2108.996,1755.213,2174.572,1650.331,2174.577z"/>
      </g>
      <g>
        <path style="fill:#232323;" d="M1635.469,2174.357c-3.363,0-6.754-1.045-9.655-3.218 c-44.324-33.184-60.315-84.561-45.028-144.668c21.147-83.14,96.665-159.268,168.342-169.702 c0.173-0.024,0.348-0.044,0.522-0.063c104.972-11.797,148.064-41.367,144.092-98.882c-0.046-0.674-0.051-1.348-0.012-2.021 c3.45-61.04,31.84-99.78,84.381-115.142c19.207-5.615,34.757-16.294,44.969-30.884c42.763-61.084,83.086-91.221,126.899-94.844 c38.48-3.242,77.882,15.479,117.129,55.479c6.238,6.358,6.142,16.567-0.216,22.808c-6.358,6.245-16.569,6.147-22.809-0.22 c-32.211-32.822-62.968-48.306-91.444-45.918c-33.063,2.734-66.798,29.292-103.134,81.191 c-14.464,20.664-36.023,35.654-62.345,43.345c-38.835,11.357-58.291,38.389-61.169,85.044 c6.201,100.171-95.299,123.369-172.468,132.066c-58.846,8.726-123.59,75.376-141.476,145.698 c-8.394,32.998-9.464,79.028,33.099,110.893c7.13,5.337,8.583,15.444,3.245,22.578 C1645.225,2172.126,1640.376,2174.357,1635.469,2174.357z"/>
      </g>
      <g>
        <path style="fill:#232323;" d="M1091.152,2459.063c5.599,7.488,9.873,15.149,13.929,22.805 c4.171,7.593,8.415,14.993,11.929,22.644c3.644,7.588,7.802,14.805,11.519,22.246c1.694,3.821,4.133,7.156,6.194,10.728 l6.175,10.698c4.393,6.907,9.119,13.557,13.628,20.391l7.721,9.431c2.619,3.101,4.984,6.482,8.023,9.163 c5.861,5.564,11.335,11.66,18.002,16.27l9.64,7.366c3.396,2.188,6.916,4.192,10.358,6.311 c13.722,8.608,29.01,14.458,44.467,19.646c3.925,1.143,7.959,1.992,11.931,3.013c4.011,0.891,7.912,2.178,12.01,2.766 l12.264,1.877c4.087,0.635,8.154,1.372,12.34,1.519c16.571,1.492,33.365,1.755,50.206,0.796l26.391-1.851 c9.94-0.461,19.922,0.166,29.715,1.848c19.591,3.357,38.424,10.977,54.83,22.231l6.036,4.385l5.791,4.705l5.527,5.017 l4.948,4.854c6.51,6.501,12.696,13.213,18.685,20.032c11.853,13.672,23.252,27.737,33.531,42.051 c4.851,6.348,9.836,12.122,15.636,17.166c5.678,5.098,11.805,9.646,18.393,13.164c6.547,3.569,13.421,6.428,20.489,8.181 c7.068,1.697,14.265,2.415,21.305,2.009c14.081-0.769,27.478-6.14,37.591-15.703c5.094-4.727,9.437-10.374,13.027-16.641 c3.548-6.316,6.088-13.357,8.135-20.625c3.686-14.753,4.533-30.742,3.174-46.848l-0.005-0.066 c-0.035-0.417-0.052-0.864-0.054-1.277c0.003-27.224,2.688-54.702,9.054-81.572c6.329-26.853,16.429-53.03,30.255-77.112 c13.713-24.229,31.676-45.54,50.497-65.667c4.897-4.832,9.79-9.739,15.109-14.092c5.494-4.128,10.894-8.401,16.777-11.943 c5.937-3.452,12.046-6.646,18.514-9.141c6.632-2.229,13.371-4.192,20.727-4.88c3.293-0.308,6.213,2.112,6.521,5.405 c0.118,1.26-0.163,2.463-0.738,3.486l-0.151,0.269c-3.607,6.44-7.832,11.606-12.163,16.506 c-4.271,4.961-8.61,9.644-13.281,13.84c-4.548,4.336-9.04,8.643-13.734,12.71c-4.698,4.05-9.112,8.359-13.912,12.297 c-18.771,16.211-33.875,36.104-46.2,57.285c-12.22,21.309-21.16,44.429-26.832,68.477c-5.699,24.05-8.177,48.977-8.185,74.05 l-0.059-1.34c1.577,18.853,0.759,38.408-4.1,57.754c-2.667,9.626-6.133,19.197-11.193,28.225 c-5.104,8.982-11.539,17.419-19.329,24.624c-15.474,14.639-36.66,23.125-57.584,24.182c-10.484,0.603-20.929-0.481-30.926-2.905 c-9.993-2.478-19.461-6.409-28.303-11.243c-8.893-4.79-16.979-10.779-24.349-17.393c-7.45-6.501-14.01-14.084-19.794-21.675 c-10.199-14.211-20.969-27.441-32.104-40.303c-5.598-6.375-11.321-12.578-17.236-18.484l-4.453-4.368l-4.223-3.835l-4.428-3.599 l-4.619-3.354c-12.557-8.618-27.032-14.475-42.059-17.048c-7.512-1.292-15.157-1.77-22.759-1.418l-26.155,1.838 c-18.207,1.035-36.605,0.771-55.009-0.896c-4.604-0.186-9.191-0.981-13.781-1.687l-13.766-2.129 c-4.591-0.681-9.095-2.095-13.646-3.118c-4.529-1.16-9.096-2.153-13.589-3.467c-17.804-5.894-35.517-12.771-51.631-22.798 c-4.036-2.471-8.139-4.849-12.104-7.427l-11.313-8.591c-7.858-5.374-14.283-12.354-21.397-18.596 c-3.644-3.062-6.532-6.787-9.755-10.229l-9.452-10.537c-5.612-7.49-11.308-15.017-16.401-22.859 c-4.553-8.115-9.476-16.118-13.26-24.568c-1.86-4.236-3.556-8.545-5.329-12.805c-1.718-4.28-3.669-8.484-4.808-12.942 c-2.477-8.85-4.923-17.715-6.171-26.812c-0.938-9.177-1.658-18.35-1.053-27.693c0.202-3.12,2.894-5.483,6.012-5.281 c1.71,0.11,3.193,0.969,4.151,2.236L1091.152,2459.063z"/>
      </g>
      <g>
        <path style="fill:#232323;" d="M1701.424,2619.284c-2.637,0-5.31-0.649-7.782-2.012c-7.798-4.306-10.629-14.121-6.322-21.919 c62.534-113.242,169.62-134.356,336.936-66.392c56.549,12.739,108.489,1.67,150.265-32.026 c49.014-39.521,78.868-108.11,77.915-178.989c-0.006-0.41,0.005-0.825,0.031-1.24c4.696-73.701,62.111-118.901,170.65-134.336 c39.357-5.596,74.309-38.384,79.57-74.644c2.701-18.608,0.01-37.959-2.841-58.442c-0.454-3.262-0.908-6.523-1.339-9.775 c-3.457-26.118-5.339-53.872,4.214-79.893c11.63-31.689,40.129-53.169,69.445-52.646c25.155,0.591,54.028,11.558,75.349,28.623 c4.384,3.511,8.677,7.197,12.971,10.894c12.408,10.684,24.13,20.771,37.534,25.537c33.946,12.06,72.68-14.902,86.211-46.66 c13.271-31.147,11.927-70.786-3.99-117.818c-5.951-17.583-13.425-35.268-20.653-52.373 c-9.754-23.076-19.839-46.943-26.886-71.929c-18.314-64.937-15.128-135.4,8.969-198.418 c22.556-58.984,28.011-141.914-10.646-194.224c-5.294-7.163-3.778-17.261,3.385-22.554c7.166-5.303,17.261-3.784,22.557,3.384 c49.05,66.372,38.646,162.642,14.833,224.917c-21.635,56.577-24.495,119.839-8.053,178.135 c6.5,23.047,15.756,44.946,25.554,68.135c7.455,17.637,15.164,35.879,21.494,54.585c18.536,54.766,19.584,102.139,3.112,140.806 c-19.558,45.903-75.136,82.744-126.694,64.404c-19.076-6.782-33.662-19.336-47.769-31.475 c-4.003-3.447-7.999-6.895-12.085-10.161c-15.831-12.671-37.794-21.133-55.953-21.563 c-17.447-0.156-32.541,15.542-38.403,31.514c-7.144,19.463-5.431,42.524-2.517,64.546c0.422,3.184,0.865,6.372,1.31,9.566 c3.036,21.811,6.175,44.37,2.816,67.519c-7.328,50.488-53.307,94.316-106.953,101.943 c-92.263,13.125-139.034,47.1-142.96,103.863c0.912,81.528-32.676,157.71-89.927,203.882 c-50.076,40.386-111.977,53.55-179.01,38.062c-0.841-0.19-1.666-0.454-2.465-0.781 c-154.011-62.852-243.053-47.417-297.739,51.621C1712.616,2616.276,1707.106,2619.284,1701.424,2619.284z"/>
      </g>
      <g>
        <path style="fill:#FF40B2;" d="M2354.977,2228.061c-0.9,23.95,3.75,48.1,0.2,71.8c-3.55,23.7-18.65,48.3-42.3,52.15 c-4.3,0.7-8.6,0.7-12.8,0.15c-14.349-1.85-28.149-9.7-41.649-15.85c-17.5-7.9-40.25-12.35-54.2,0.9c0,0-9.9-85.95,67.7-136.35 l0.599-0.4c24.551-15.85,57.8-28.1,102.8-33c3.199-0.4,1.323-2.161,4.672-2.461c10.699-0.9-1.35,9.35-10,20 C2359.401,2198.15,2355.428,2214.861,2354.977,2228.061z"/>
      </g>
      <g>
        <path style="fill:#232323;" d="M2386.488,2168.823c-8.411,11.416-11.394,22.317-13.136,33.96 c-0.813,5.779-1.328,11.614-1.483,17.505c-0.117,2.949-0.086,5.872,0.048,8.86c0.125,3.091,0.164,6.206,0.386,9.414 c0.647,12.769,1.501,26.67,0.973,41.638c-0.271,7.488-0.874,15.149-2.241,23.086c-1.469,8.191-3.793,16.123-7.131,23.787 c-3.411,7.61-7.67,15.085-13.619,21.797c-5.853,6.719-13.368,12.798-22.427,16.758c-9.082,3.923-19.432,5.254-28.643,4.25 c-9.3-0.979-17.425-3.684-24.559-6.78c-7.123-3.125-13.448-6.521-19.231-9.795c-3-1.655-5.566-3.015-8.106-4.292 c-2.583-1.306-5.172-2.576-7.767-3.706c-5.202-2.378-10.311-4.336-15.611-5.762c-2.637-0.652-5.309-1.106-8.277-1.348 c-2.866-0.034-6.003,0.161-9.573,0.952l-0.332,0.073c-1.588,0.352-3.16-0.652-3.511-2.239c-0.133-0.603-0.072-1.204,0.143-1.736 c1.539-3.826,4.166-7.485,7.609-10.3c3.411-2.834,7.458-4.946,11.657-6.409c8.417-2.778,17.173-3.047,25.267-1.965 c4.073,0.559,8.039,1.418,11.866,2.607c3.905,1.133,7.573,2.703,10.807,3.95c6.661,2.588,12.679,5.295,18.298,7.371 c5.603,2.031,10.698,3.638,15.112,4.099c4.45,0.618,8.155,0.166,11.872-0.964c7.324-2.512,14.986-9.951,19.43-19.895 c2.287-4.89,3.934-10.247,4.699-15.627c0.873-5.645,0.968-11.775,0.76-18.035c-0.427-12.563-2.38-26.091-2.269-40.837 c0.06-3.667,0.156-7.434,0.471-11.221c0.384-3.884,0.918-7.827,1.644-11.707c1.554-7.754,3.99-15.435,7.706-22.651 c3.689-7.185,8.552-14.033,14.924-19.368c6.179-5.422,13.869-9.253,21.668-10.19c1.586-0.19,3.026,0.942,3.216,2.527 c0.091,0.759-0.12,1.484-0.539,2.056L2386.488,2168.823z"/>
      </g>
      <g>
        <path style="fill:#FF40B2;" d="M1199.877,2546.361c-4.85,3.1-8.9,6.95-12.35,11.4c-8.65,11.1-13.249,25.65-15.3,39.85 c-2.9,19.85-1.85,40.2-6.201,59.8c-4.299,19.55-15.599,39.3-34.449,46.15c-20.6,7.45-44.7-3.5-57.15-21.5 c-12.5-18-15.05-41.3-12.55-63.05c1.749-15.2,5.699-29.95,9.75-44.75c1.75-6.4,3.5-12.75,5.05-19.2 c10.649-43.1,11.7-74.2,7.3-118.4L1199.877,2546.361z"/>
      </g>
      <g>
        <path style="fill:#232323;" d="M1100.027,2435.068c2.652,20.945,4.173,42.656,2.954,64.646 c-1.115,21.985-4.863,43.704-10.183,64.443c-5.272,20.698-11.155,39.744-13.13,57.876c-2.026,17.859,0.439,35.613,8.391,48.357 c3.722,6.062,9.188,11.113,15.582,14.368c6.339,3.25,13.174,4.434,18.865,3.333c5.66-0.959,11.216-4.309,15.939-9.919 c4.734-5.581,8.47-13.176,10.775-21.262c4.81-16.482,3.871-37.129,8.066-59.285c2.03-11.245,5.725-22.651,11.877-33.047 c6.01-10.359,15.203-19.907,26.618-24.666c3.938-1.641,8.461,0.222,10.103,4.16c1.21,2.905,0.515,6.125-1.512,8.276 l-0.392,0.413c-12.067,12.759-16.031,30.374-17.35,48.76c-1.265,18.801,0.067,40.112-5.603,63.884 c-3.064,11.843-8.045,23.511-16.337,34.048c-8.163,10.461-20.619,19.619-35.377,22.615c-14.668,3.01-29.237,0.068-41.34-5.874 c-12.145-5.928-22.6-15.256-29.927-26.665c-7.17-11.077-11.382-23.442-13.364-35.549c-2.022-12.148-2.026-24.128-0.81-35.747 c2.444-23.105,9.29-43.699,14.335-62.996c4.982-19.299,8.946-38.408,10.409-57.734c1.541-19.314,0.745-39.058-0.688-59.248 c-0.639-8.889,6.047-16.611,14.935-17.251C1091.438,2420.386,1098.936,2426.65,1100.027,2435.068z"/>
      </g>
      <g>
        <path style="fill:#FF40B2;" d="M2711.817,1404.81c-0.28,23.355,9.848,45.599,22.002,65.544 c12.155,19.945,26.583,38.606,36.439,59.781s14.815,45.962,6.873,67.927c-7.942,21.965-31.685,39.068-54.428,33.75 c-17.195-4.021-29.642-19.076-37.706-34.786s-13.143-32.97-22.802-47.754c-9.659-14.784-25.741-27.261-43.338-25.781"/>
      </g>
      <g>
        <path style="fill:#232323;" d="M2724.781,1447.883c12.899,11.699,24.067,22.498,34.872,35.161 c5.362,6.284,10.352,13.088,15.142,20.322c4.888,7.197,9.315,14.902,13.188,23.328c7.535,16.812,12.19,36.021,9.971,56.292 c-1.211,10.107-3.864,20.088-9.245,29.734c-5.195,9.404-12.403,17.273-20.923,23.601c-8.554,6.262-18.829,10.803-30.249,12.317 c-5.723,0.557-11.642,0.566-17.454-0.613c-5.732-1.101-11.176-3.13-16.146-5.725c-19.915-10.771-31.076-28.638-38.086-44.912 c-6.906-16.265-10.855-31.028-16.936-43.062c-2.991-5.999-6.885-11.658-11.587-16.672c-4.823-4.854-10.463-9.138-18.247-11.484 l-0.139-0.042c-1.499-0.452-2.348-2.034-1.897-3.533c0.249-0.825,0.853-1.46,1.586-1.782c8.619-3.743,19.405-3.052,28.502,0.576 c9.292,3.489,17.381,9.443,24.036,16.641c13.169,14.678,19.62,31.453,26.326,44.854c3.33,6.846,6.502,12.598,10.301,17.903 c3.782,5.188,7.956,9.514,12.36,12.19c4.455,2.747,8.867,3.818,13.683,3.43c2.425-0.317,4.944-0.894,7.439-1.914 c2.444-1.169,4.932-2.454,7.188-4.255c4.595-3.416,8.427-8.196,10.919-13.223c2.408-4.792,3.809-10.994,4.185-17.141 c0.617-12.48-2.6-26.089-7.894-39.248c-2.648-6.589-5.991-13.325-9.503-20.168c-3.595-6.819-7.609-13.689-11.269-21.055 c-7.232-14.604-14.336-31.14-15.015-49.285c-0.06-1.604,1.192-2.954,2.796-3.013c0.788-0.032,1.514,0.256,2.056,0.745 L2724.781,1447.883z"/>
      </g>
      <g style="opacity:0.3;">
        <path style="fill:#232323;" d="M2238.58,1575.329c-11.72-16.497-35.814-20.729-54.764-13.63s-33.208,23.256-43.32,40.785 c-10.111,17.529-16.815,36.789-25.733,54.954c-8.918,18.165-20.611,35.781-37.768,46.511 c-13.047,8.16-28.323,11.778-43.054,16.229c-14.731,4.451-29.739,10.206-40.292,21.406 c-10.553,11.2-12.292,29.856-11.081,45.198c2.604,32.998-6.401,66.798-25.079,94.126 c-18.678,27.328-46.899,47.995-78.589,57.554c-29.121,8.783-60.254,8.314-89.873,15.231 c-44.13,10.306-84.072,37.58-109.735,74.931s-37.862,82.571-31.656,127.461c-44.555,2.288-89.695-17.971-117.602-52.779 s-36.692-86.023-30.318-130.179c9.437-65.374,48.281-125.931,103.766-161.767c30.14-19.467,64.299-31.656,96.405-47.674 c32.106-16.019,63.404-37.141,80.992-68.415c16.832-29.929,20.625-68.1,46.068-91.159 c32.832-29.755,91.689-24.409,114.769-62.232c8.134-13.329,9.849-29.636,16.797-43.621c6.948-13.984,23.44-26.014,37.527-19.276 c50.453-24.491,113.285-27.934,166.438-10.04c53.152,17.893,97.218,66.968,99.562,123.002 C2259.443,1585.026,2245.773,1577.015,2238.58,1575.329z"/>
      </g>
      <g style="opacity:0.3;">
        <path style="fill:#232323;" d="M2718.964,1452.865c-12.071-0.08-21.314,12.371-21.761,24.433 c-0.448,12.063,5.581,23.376,12.256,33.433c6.675,10.057,14.302,19.816,17.772,31.377c6.641,22.122-5.306,48.256-26.381,57.708 c-5.585-17.829-14.859-32.402-25.87-47.496c-11.01-15.094-28.406-26.818-47.075-26.084 c9.462,14.762,10.536,36.392,10.398,53.926c-0.139,17.533-1.714,35.345,2.386,52.393c5.434,22.591,21.191,42.481,41.94,52.94 c20.749,10.459,46.11,11.295,67.503,2.227c-1.963-17.22-3.076-36.276-5.039-53.497c24.677-10.376,42.853-35.916,45.127-62.59 c1.985-23.286-7.283-46.414-20.998-65.337C2755.508,1487.374,2736.745,1468.032,2718.964,1452.865z"/>
      </g>
      <g style="opacity:0.3;">
        <path style="fill:#232323;" d="M2355.177,2299.861c-3.55,23.7-18.65,48.3-42.3,52.15c-4.3,0.7-8.6,0.7-12.8,0.15 c-28.9-15.8-59.85-33.6-59.85-33.6c46.851,0.6,53.15-21.9,40.65-52.3c-12.5-30.4-8.949-65.4-8.949-65.4l0.599-0.4 c24.551-15.85,57.8-28.1,102.8-33c3.4,7.2-5.328,17.539-5.328,17.539c-10.599,13.15-14.572,29.861-15.023,43.061 C2354.078,2252.011,2358.727,2276.161,2355.177,2299.861z"/>
      </g>
      <g style="opacity:0.3;">
        <path style="fill:#232323;" d="M1187.527,2557.761c-8.65,11.1-13.249,25.65-15.3,39.85c-2.9,19.85-1.85,40.2-6.201,59.8 c-4.299,19.55-15.599,39.3-34.449,46.15c-20.6,7.45-44.7-3.5-57.15-21.5c-12.5-18-15.05-41.3-12.55-63.05 c1.749-15.2,5.699-29.95,9.75-44.75c1.85,4.1,2.9,9.2,2.95,15.5c0.65,61.3,50,50.65,50,50.65c22.5-8.75,6.3-51.25,20-76.25 C1158.378,2539.161,1187.527,2557.761,1187.527,2557.761z"/>
      </g>
      <g style="opacity:0.2;">
        <path style="fill:#FFFFFF;" d="M1368.008,2238.662c17.403,10.435,37.278,15.902,55.678,24.456 c18.4,8.553,36.306,21.433,43.372,40.454c11.914,32.069-13.518,68.531-45.731,80.049s-67.924,4.496-100.766-5.086 c-31.819-9.284-64.68-22.083-85.017-48.257c-37.766-48.603-19.122-135.762,25.167-175.341 C1314.276,2107.073,1330.007,2215.877,1368.008,2238.662z"/>
      </g>
      <g style="opacity:0.2;">
        <path style="fill:#FFFFFF;" d="M1649.408,2302.981c11.66-0.064,23.622,1.946,33.612,7.959 c9.99,6.014,17.725,16.503,18.374,28.145c0.875,15.707-11.21,29.812-25.536,36.313c-14.325,6.501-30.542,7.014-46.268,7.416 c-25.597,0.654-67.241-9.773-54.316-44.897C1584.391,2313.139,1626.748,2303.106,1649.408,2302.981z"/>
      </g>
      <g>
        <path style="fill:#FFFFFF;" d="M2355.563,1465.129c-8.103,0-15.084-6.089-16.008-14.331 c-0.992-8.853,5.378-16.831,14.231-17.827l85.372-9.57c8.875-0.962,16.832,5.386,17.825,14.233 c0.992,8.853-5.378,16.831-14.231,17.827l-85.372,9.57C2356.769,1465.099,2356.163,1465.129,2355.563,1465.129z"/>
      </g>
      <g>
        <path style="fill:#FFFFFF;" d="M1318.389,2084.147c-2.78,0-5.594-0.723-8.164-2.231c-7.677-4.517-10.239-14.404-5.723-22.08 l48.474-82.392c4.517-7.676,14.399-10.229,22.08-5.723c7.677,4.517,10.239,14.404,5.723,22.08l-48.474,82.392 C1329.3,2081.301,1323.916,2084.147,1318.389,2084.147z"/>
      </g>
      <g>
        <path style="fill:#FFFFFF;" d="M1769.137,1562.106c-2.633,0-5.303-0.649-7.772-2.007c-7.8-4.302-10.638-14.111-6.338-21.914 l46.154-83.716c4.301-7.798,14.108-10.625,21.912-6.338c7.8,4.302,10.638,14.111,6.338,21.914l-46.154,83.716 C1780.337,1559.094,1774.823,1562.106,1769.137,1562.106z"/>
      </g>
      <g>
        <path style="fill:#232323;" d="M1329.143,2259.142c-8.104,0-15.084-6.089-16.008-14.331 c-0.992-8.853,5.378-16.831,14.231-17.827l95-10.649c8.862-1.04,16.831,5.381,17.825,14.233 c0.992,8.853-5.378,16.831-14.231,17.827l-95,10.65C1330.349,2259.113,1329.743,2259.142,1329.143,2259.142z"/>
      </g>
      <g>
        <path style="fill:#232323;" d="M2485.604,1757.873c-8.654,0-15.811-6.86-16.11-15.576l-3.271-95.542 c-0.304-8.901,6.665-16.367,15.567-16.67c8.904-0.391,16.365,6.66,16.671,15.566l3.271,95.542 c0.304,8.901-6.665,16.367-15.568,16.67C2485.978,1757.868,2485.789,1757.873,2485.604,1757.873z"/>
      </g>
      <g>
        <path style="fill:#232323;" d="M1949.991,2278.527c-0.272,0-0.546-0.005-0.82-0.02l-95.476-4.78 c-8.896-0.444-15.747-8.018-15.302-16.914c0.447-8.896,8.049-15.82,16.915-15.303l95.476,4.781 c8.896,0.444,15.747,8.017,15.302,16.914C1965.653,2271.828,1958.527,2278.527,1949.991,2278.527z"/>
      </g>
      <g>
        <path style="fill:#232323;" d="M2550.67,1342.536c-0.272,0-0.544-0.005-0.819-0.02l-81.686-4.087 c-8.896-0.444-15.748-8.018-15.303-16.914c0.444-8.896,8.025-15.771,16.914-15.303l81.686,4.087 c8.896,0.444,15.748,8.018,15.302,16.914C2566.335,1335.837,2559.207,1342.536,2550.67,1342.536z"/>
      </g>
      <g>
        <path style="fill:#232323;" d="M1291.066,2449.928c-2.839,0-5.714-0.752-8.323-2.329l-70.01-42.285 c-7.625-4.604-10.072-14.517-5.468-22.144c4.607-7.622,14.515-10.078,22.145-5.464l70.01,42.285 c7.625,4.604,10.072,14.517,5.467,22.144C1301.857,2447.15,1296.529,2449.928,1291.066,2449.928z"/>
      </g>
      <g>
        <path style="fill:#232323;" d="M2135.108,1343.483c-5.404,0-10.683-2.715-13.733-7.651c-4.685-7.573-2.341-17.515,5.234-22.197 l81.305-50.278c7.58-4.683,17.516-2.344,22.2,5.234c4.685,7.573,2.341,17.515-5.235,22.197l-81.305,50.278 C2140.932,1342.702,2138.002,1343.483,2135.108,1343.483z"/>
      </g>
      <g>
        <path style="fill:#FFFFFF;" d="M1453.156,2462.551c-6.516,0-12.654-3.979-15.092-10.435c-3.146-8.335,1.06-17.642,9.392-20.786 l89.434-33.765c8.334-3.14,17.642,1.06,20.786,9.39c3.146,8.335-1.06,17.642-9.392,20.786l-89.434,33.765 C1456.974,2462.214,1455.049,2462.551,1453.156,2462.551z"/>
      </g>
      <g>
        <path style="fill:#FFFFFF;" d="M2206.3,2090.695c-8.585,0-15.725-6.768-16.101-15.43l-4.146-95.503 c-0.387-8.896,6.515-16.426,15.414-16.811c8.882-0.444,16.426,6.514,16.813,15.415l4.145,95.503 c0.387,8.896-6.515,16.426-15.414,16.812C2206.774,2090.69,2206.536,2090.695,2206.3,2090.695z"/>
      </g>
      <g>
        <path style="fill:#232323;" d="M1558.081,1755.568c-1.652,0-3.33-0.254-4.985-0.791c-8.473-2.754-13.109-11.851-10.358-20.322 l29.531-90.923c2.751-8.472,11.852-13.105,20.321-10.361c8.473,2.754,13.109,11.851,10.358,20.322l-29.531,90.923 C1571.204,1751.232,1564.88,1755.568,1558.081,1755.568z"/>
      </g>
      <g style="opacity:0.2;">
        <path style="fill:#FFFFFF;" d="M2404.459,1477.833c1.176,16.344,0.016,32.794,1.308,49.129s5.322,33.049,15.515,45.879 c10.194,12.83,27.622,20.852,43.377,16.349c21.338-6.099,30.901-30.607,35.517-52.315c8.318-39.119,10.351-80.363-0.862-118.753 c-11.213-38.39-36.912-73.653-73.206-90.453c-20.394-9.441-44.003-12.154-66.018-7.65c-8.871,1.815-26.798,5.736-32.918,13.323 c-8.983,11.136,4.209,15.313,13.392,22.796C2377.036,1385.859,2401.074,1430.806,2404.459,1477.833z"/>
      </g>
      <g style="opacity:0.2;">
        <path style="fill:#FFFFFF;" d="M2447.61,1728.38c6.259,26.714-2.985,54.752-16.182,78.807 c-12.466,22.721-28.558,43.448-47.481,61.155c-7.124,6.666-14.854,13.03-24.03,16.346c-9.175,3.317-20.109,3.13-27.989-2.623 c-8.342-6.091-11.715-17.247-11.063-27.555s4.705-20.055,8.705-29.577c16.953-40.369,30.179-87.745,53.559-124.818 C2402.448,1669.481,2447.61,1697.054,2447.61,1728.38z"/>
      </g>
    </g>
    <g>
      <g>
        <path style="fill:#FF40B2;" d="M1807.691,2388.156c-538.032-384.328-888.108-816.443-781.862-965.148 c62.934-88.133,272.036-56.917,543.981,63.142c-4.885,2.865-9.714,5.825-14.407,8.876 c-186.613-69.394-325.772-79.741-372.378-14.506c-91.921,128.664,210.947,502.525,676.463,835.068 c465.547,332.525,917.439,497.8,1009.328,369.155c44.631-62.48-3.837-182.818-118.855-328.149 c2.985-4.315,5.915-8.726,8.826-13.169c187.631,208.527,276.123,386.3,215.391,471.334 C2867.982,2963.478,2345.673,2772.469,1807.691,2388.156z"/>
      </g>
      <g style="opacity:0.3;">
        <path style="fill:#232323;" d="M2974.201,2814.75c-94.851,132.9-521.801-5.4-995.35-310.4l11.8-15.9 c460.15,290.1,869.4,418.85,962.05,289.15c34.399-48.1,21-125.85-31.1-222.1C2991.051,2668.85,3012.851,2760.6,2974.201,2814.75 z"/>
      </g>
      <g style="opacity:0.55;">
        <path style="fill:#FFFFFF;" d="M1360.914,1441.692c-164.778-48.29-285.065-46.482-330.212,16.722 c-14.145,19.767-20.179,44.53-18.822,73.559c-9.71-44.587-5.632-81.555,13.949-108.965 c62.934-88.133,272.036-56.917,543.981,63.142c-4.885,2.865-9.714,5.825-14.407,8.876 C1482.43,1467.882,1416.674,1449.775,1360.914,1441.692z"/>
      </g>
      <g style="opacity:0.55;">
        <path style="fill:#FFFFFF;" d="M2873.689,2720.149c-91.889,128.646-543.781-36.63-1009.328-369.155 c-405.616-289.734-687.739-610.86-692.83-773.8c39.21,171.127,309.958,468.376,687.958,738.393 c465.547,332.525,917.439,497.8,1009.328,369.155c11.802-16.544,17.099-37.145,16.372-61.187 C2894.3,2663.138,2890.946,2695.994,2873.689,2720.149z"/>
      </g>
      <g>
        <path style="fill:#232323;" d="M2838.869,2879.909c-75.323,0.005-173.685-21.514-291.166-64.478 c-221.568-81.03-487.473-228.438-748.732-415.068h0.001c-261.29-186.646-486.971-390.386-635.472-573.696 c-152.313-188.018-205.541-334.473-149.876-412.383c65.584-91.841,270.514-70.649,562.244,58.144 c5.15,2.271,8.594,7.236,8.917,12.861c0.323,5.62-2.528,10.947-7.384,13.794c-4.952,2.91-9.602,5.772-13.817,8.516 c-3.984,2.593-8.956,3.14-13.408,1.484c-185.347-68.926-314.718-76.152-354.946-19.844 c-39.594,55.42,7.296,173.12,128.645,322.915c126.938,156.699,320.253,331.152,544.333,491.225 c224.092,160.063,451.814,286.362,641.218,355.635c181.061,66.226,307.604,72.437,347.184,17.007 c38.296-53.608-4.863-166.646-118.412-310.122c-4.093-5.171-4.327-12.412-0.575-17.837c2.915-4.214,5.775-8.521,8.619-12.861 c2.551-3.892,6.763-6.382,11.403-6.733c4.642-0.356,9.181,1.465,12.294,4.922c203.648,226.328,280.517,400.376,216.447,490.083 C2959.51,2861.115,2909.246,2879.904,2838.869,2879.909z M1160.363,1387.136c-59.033,0-100.986,14.702-122.327,44.585 c-46.423,64.976,7.804,202.046,148.774,376.06c146.849,181.274,370.444,383.052,629.6,568.169l0,0 c259.122,185.107,522.493,331.177,741.597,411.308c210.325,76.919,357.563,83.77,403.965,18.784 c41.975-58.774,1.559-175.752-108.618-324.277c51.284,93.003,61.01,165.02,27.669,211.699 c-48.721,68.208-184.348,65.977-381.901-6.27c-191.867-70.176-422.124-197.813-648.351-359.399 c-226.216-161.602-421.616-338.018-550.208-496.753c-132.402-163.447-178.479-291.025-129.744-359.243 c33.236-46.514,106.714-60.274,212.67-41.489C1294.62,1401.686,1219.047,1387.136,1160.363,1387.136z"/>
      </g>
      <g>
        <path style="fill:#FF40B2;" d="M2860.001,2822.85c-0.95,0.25-1.849,0.5-2.75,0.8c-14.8,5.05-24.8,20.1-28.8,35.4 c-4.299,16.25-3.4,33.35-4.6,50.1c-1.25,16.8-5.15,34.4-16.949,46.4c-11.751,12-33.351,15.5-45.151,3.5 c-16.549-16.9-4.5-50.6-23.099-65.25c-6.4-4.95-14.449-6.1-22.7-6.9c-8.35-0.8-16.849-1.35-24-5.35 c-10.9-6.15-16.05-19.1-17.999-31.4c-2.001-12.35-1.65-25.1-5.25-37.1c-3.65-11.95-12.75-23.5-25.15-24.85l165.751,26.55 l47.549,7.6L2860.001,2822.85z"/>
      </g>
      <g>
        <path style="fill:#232323;" d="M2780.773,2981.491c-11.602,0-22.149-4.233-29.701-11.919 c-11.632-11.846-13.427-28.008-14.868-40.996c-1.332-12.002-2.456-19.531-6.836-22.974c-3.396-2.666-9.584-3.252-16.747-3.936 c-8.754-0.835-18.677-1.777-28.04-7.065c-13.452-7.593-22.255-22.148-25.458-42.095c-0.815-5.078-1.259-10.034-1.688-14.834 c-0.653-7.295-1.27-14.189-3.108-20.249c-2.357-7.778-7.572-13.799-12.4-14.326c-8.236-0.898-14.184-8.301-13.288-16.538 c0.898-8.232,8.298-14.121,16.535-13.286c17.035,1.855,31.897,15.767,37.861,35.444c2.734,9.014,3.521,17.793,4.28,26.284 c0.402,4.478,0.78,8.706,1.428,12.749c1.656,10.308,5.514,17.866,10.585,20.728c3.81,2.148,9.797,2.719,16.136,3.325 c9.851,0.938,22.111,2.104,32.427,10.205c14.6,11.46,16.556,29.087,18.129,43.257c1.075,9.688,2.091,18.843,6.454,23.281 c2.39,2.437,5.83,2.944,8.299,2.944c0.002,0,0.003,0,0.006,0c5.528,0,11.579-2.529,15.417-6.44 c7.249-7.393,11.398-19.487,12.681-36.978c0.346-4.712,0.512-9.453,0.681-14.189c0.449-12.554,0.914-25.532,4.37-38.657 c6.328-24.028,22.611-42.012,42.495-46.924c8.041-1.982,16.173,2.915,18.16,10.962c1.987,8.042-2.921,16.172-10.963,18.159 c-11.039,2.73-18.04,15.415-20.681,25.444c-2.606,9.893-2.992,20.674-3.4,32.09c-0.183,5.112-0.37,10.225-0.743,15.313 c-1.825,24.868-8.753,43.115-21.184,55.786c-9.475,9.663-23.241,15.43-36.823,15.435 C2780.785,2981.491,2780.778,2981.491,2780.773,2981.491z"/>
      </g>
      <g>
        <path style="fill:#FF40B2;" d="M1042.521,1616.919c49.689,87.263,50.901,125.665,41.101,188.602 c-2.603,16.713-6.278,33.432-5.658,50.335s6.185,34.482,19.047,45.467c12.862,10.985,34.001,13.008,46.303,1.398 c16.819-15.873,8.949-43.234,5.683-66.129c-4.604-32.279,3.241-66.175,21.558-93.15"/>
      </g>
      <g style="opacity:0.55;">
        <path style="fill:#FFFFFF;" d="M1145.051,1910.3c-12.5,8.65-31.25,6.1-43.051-4c-12.849-10.95-18.4-28.55-19.05-45.45 c-0.6-16.9,3.05-33.6,5.65-50.35c9.8-62.9,8.6-101.3-41.1-188.6l56.5,55.85c19.75,49.1,18.55,82.2,11.3,128.6 c-2.6,16.7-6.3,33.45-5.651,50.35c0.6,16.9,6.15,34.45,19.05,45.45C1133.35,1906.1,1139.051,1908.9,1145.051,1910.3z"/>
      </g>
      <g>
        <path style="fill:#232323;" d="M1122.047,1925.475c-12.238,0-24.843-4.263-34.777-12.744 c-14.799-12.637-23.428-32.642-24.298-56.323c-0.553-15.078,1.874-29.487,4.221-43.423c0.549-3.257,1.099-6.514,1.605-9.775 c9.338-59.961,8.442-95-39.313-178.867c-4.099-7.197-1.587-16.357,5.613-20.459c7.195-4.097,16.36-1.587,20.457,5.615 c49.88,87.598,53.495,130.21,42.887,198.33c-0.527,3.379-1.096,6.758-1.665,10.142c-2.194,13.023-4.265,25.317-3.824,37.334 c0.551,14.976,5.58,27.593,13.8,34.614c7.766,6.631,20.286,7.534,26.265,1.895c7.949-7.505,6.177-22.373,2.804-42.559 c-0.598-3.579-1.187-7.109-1.676-10.542c-5.121-35.903,3.627-73.696,24-103.696c4.656-6.85,13.981-8.628,20.836-3.979 c6.853,4.653,8.635,13.979,3.981,20.835c-16.229,23.896-23.197,54.004-19.117,82.602c0.457,3.203,1.008,6.499,1.566,9.834 c3.74,22.393,8.396,50.259-11.803,69.321C1145.23,1921.54,1133.808,1925.475,1122.047,1925.475z"/>
      </g>
      <g>
        <path style="fill:#FF40B2;" d="M1995.501,2500.15c-12.45-5.9-27.85,1.15-36.2,12.1c-8.35,10.9-11.5,24.85-15.15,38.1 c-3.65,13.25-8.45,27.05-18.95,35.95c-17,14.45-44.451,10.6-61.25-4.05c-1.05-0.95-2.1-1.9-3.101-2.9 c-14.7-14.6-21.65-35.75-24.249-56.5c-2.75-22.1-1.25-44.55-3.151-66.75c-3.25-38.7-13.95-59.55-67.6-98.2 c47.4-14.3,111.801,12.2,210.2,120.35C1982.401,2485.2,1988.901,2492.5,1995.501,2500.15z"/>
      </g>
      <g style="opacity:0.55;">
        <path style="fill:#FFFFFF;" d="M1891.451,2570.85c9.85,8.6,23.4,13.45,36.35,13.05c-0.85,0.85-1.7,1.65-2.6,2.4 c-17,14.45-44.451,10.6-61.25-4.05c-16.851-14.6-24.6-37.25-27.35-59.4c-2.75-22.1-1.25-44.55-3.151-66.75 c-3.25-38.7-13.95-59.55-67.6-98.2c0.12-0.037,0.241-0.073,0.362-0.109c21.015-6.26,43.785-0.07,59.845,14.861 c25.819,24.003,32.442,42.994,34.893,71.998c1.901,22.25,0.4,44.7,3.151,66.8C1866.851,2533.55,1874.6,2556.2,1891.451,2570.85z "/>
      </g>
      <g>
        <path style="fill:#232323;" d="M1899.17,2610.387c-16.616,0-33.282-6.538-45.083-16.812 c-17.448-15.19-28.643-38.994-32.375-68.843c-1.644-13.154-1.865-26.226-2.079-38.867c-0.167-9.878-0.325-19.204-1.11-28.516 c-2.681-31.831-9.305-49.707-61.464-87.3c-6.72-4.844-8.242-14.219-3.398-20.938c4.843-6.719,14.216-8.252,20.94-3.398 c53.369,38.462,69.927,62.939,73.817,109.116c0.869,10.317,1.042,20.591,1.21,30.532c0.21,12.393,0.408,24.097,1.852,35.649 c1.953,15.62,7.41,36.968,22.307,49.937c11.036,9.614,30.426,13.481,41.698,3.921c7.308-6.201,11.152-17.358,14.216-28.496 l1.091-4.014c3.422-12.681,7.3-27.056,16.578-39.223c11.813-15.508,34.357-26.148,54.575-16.509 c7.477,3.569,10.647,12.52,7.08,20c-3.568,7.471-12.518,10.635-19.998,7.08c-4.69-2.251-13.004,1.318-17.798,7.612 c-5.709,7.49-8.51,17.866-11.475,28.853l-1.129,4.16c-4.341,15.771-10.221,31.948-23.737,43.418 C1924.467,2606.589,1911.833,2610.387,1899.17,2610.387z"/>
      </g>
      <g style="opacity:0.3;">
        <path style="fill:#232323;" d="M1216.931,1769.312c6.555,13.429,4.327,29.287,1.951,44.04 c-2.524,15.673-5.047,31.346-7.571,47.019c-13.679-16.938-27.359-33.877-41.038-50.815 c-11.366-14.074-23.993-39.688-6.305-54.897C1180.453,1740.484,1208.368,1751.768,1216.931,1769.312z"/>
      </g>
      <g style="opacity:0.3;">
        <path style="fill:#232323;" d="M1995.501,2500.15c-12.45-5.9-27.85,1.15-36.2,12.1c-8.35,10.9-11.5,24.85-15.15,38.1 c-3.65,13.25-8.45,27.05-18.95,35.95c-17,14.45-44.451,10.6-61.25-4.05c-1.05-0.95-2.1-1.9-3.101-2.9 c18.4-1.1,36.05-11.6,45.601-27.45c8.2-13.65,10.3-29.95,15.5-45c5.25-15.05,15.7-30.25,31.349-32.95 c7.8-1.35,15.751,0.65,22.75,4.3C1982.401,2485.2,1988.901,2492.5,1995.501,2500.15z"/>
      </g>
      <g style="opacity:0.3;">
        <path style="fill:#232323;" d="M2857.251,2823.65c-14.8,5.05-24.8,20.1-28.8,35.4c-4.299,16.25-3.4,33.35-4.6,50.1 c-1.25,16.8-5.15,34.4-16.949,46.4c-11.751,12-33.351,15.5-45.151,3.5c-16.549-16.9-4.5-50.6-23.099-65.25 c-6.4-4.95-14.449-6.1-22.7-6.9c-1.15-3.75-3.049-7.1-5.9-9.9c13.55-12.35,35.75-13.7,50.75-3.2c3.7,2.6,7.45,6,12.001,5.7 c4.8-0.3,8.4-4.9,9.5-9.6c1.15-4.7,0.5-9.65,0.601-14.45c0.349-16.7,10.449-32.75,25.349-40.25c0.35-0.2,0.701-0.35,1.051-0.45 c14.7-7,33.099-5.4,46.399,4c0.35,1.2,0.751,2.4,1.15,3.6C2857,2822.8,2857.101,2823.2,2857.251,2823.65z"/>
      </g>
    </g>
  </g>
</svg>