<?xml version="1.0" encoding="utf-8"?>
<svg viewBox="-6260.567 -1292.58 2910.56 1089.051" xmlns="http://www.w3.org/2000/svg">
  <defs>
    <clipPath id="clipPath198" clipPathUnits="userSpaceOnUse">
      <path id="path196" d="m 18461.7,6622.2 c -277.6,0 -557.2,10.5 -838.6,32 -1423.7,108.9 -2762,487.7 -3968.9,1082.8 200.3,-98.8 404.4,-191.7 611.8,-278.3 65.3,-27.2 130.8,-53.8 196.7,-79.8 16.5,205.6 57,412.4 121.6,619.8 960.2,-391.6 1996.4,-642.5 3085.9,-725.7 265.3,-20.3 528.7,-30.3 790.4,-30.3 2210.8,0 4279.8,711.3 5970.2,1930.7 73,-22.1 150.9,-34.1 233.2,-34.1 41,0 83.1,2.9 126.2,9.2 544,89.4 1016.2,468.6 1329.7,1067.8 134.4,257 231.6,540.4 287.1,825.8 1201,1483.1 1999.7,3316 2215.4,5343.6 10.6,102.2 19.8,205.3 27.7,308 75.9,993.4 7.3,1963.8 -188.3,2891.4 -537.5,-1284.7 -1312.9,-2438.3 -2267.4,-3410.1 73.3,195 164.8,381.5 274.7,561 333.3,544.4 198.4,1239.5 -313.7,1616.9 -598.5,440.9 -1177.7,896.1 -1615.4,1243.4 -25.8,20.4 -52.5,37.9 -78.4,54.8 -114,74.5 -171.2,112 -63.3,333.2 61.8,126.6 100.7,138.2 104.9,139.1 1.1,0.2 2.2,0.3 3.4,0.3 25.6,0 81.5,-46.4 119.2,-77.9 20.5,-17.1 41.2,-34.3 62.2,-50.1 145,-109.1 291.7,-222.4 433.5,-331.9 157.1,-121.3 319.6,-246.8 478.4,-365.5 157.8,-127.8 333,-192.5 522,-192.5 30.2,0 60.7,1.7 91.5,5 291.9,30.9 603.3,219.5 833.1,504.3 182.5,226.2 263.5,469.4 234.2,703.4 -27.7,221.4 -154.4,422.4 -366.5,581.4 -40.4,30.2 -81,60.4 -121.8,90.6 -192.8,142.9 -392.2,290.7 -571,461.3 -43.5,41.6 -96.5,68.5 -147.8,94.6 -123.3,62.7 -179.6,91.4 -122.8,259 33.8,100 70.5,142.2 93.5,148.3 3.3,0.9 6.8,1.3 10.6,1.3 56.7,0 164.1,-95.1 223.4,-147.7 173.7,-154 362.7,-235.6 542.1,-235.6 33,0 65.6,2.7 97.8,8.3 97,16.7 184,25.1 264.8,25.1 328.6,0 553.3,-138.2 919.7,-412.4 170.6,-164.1 333,-211.3 463.4,-211.3 25.2,0 49.1,1.7 71.7,4.7 121.3,-273.7 231.4,-552.9 330.1,-837.5 v 0 0 c -37.2,145.9 -76.9,290.9 -120,434.5 -42.1,140.8 -86.9,280.2 -134.5,418.6 v 0 c 47.6,-138.4 92.4,-277.8 134.5,-418.6 371.5,-1240.3 525.5,-2568.2 420.9,-3936.5 -8.4,-109.3 -18,-218.5 -29.5,-326.9 -588.5,-5532.1 -5268.4,-9697.5 -10777.6,-9697.5 m -4809.2,1115.6 c -1.8,0.9 -3.7,1.8 -5.5,2.7 1.9,-0.9 3.6,-1.8 5.5,-2.7 m -9,4.4 c -1.2,0.6 -2.4,1.2 -3.6,1.8 1.2,-0.6 2.4,-1.2 3.6,-1.8 m -8.7,4.3 c -0.6,0.3 -1.4,0.8 -2,1.1 0.6,-0.3 1.4,-0.8 2,-1.1 m -8.7,4.4 -0.4,0.1 c 0.3,-0.1 0.1,0 0.4,-0.1 m -879.4,489.1 c -3237.41,2003.4 -5308.15,5648 -5138.03,9683.3 -15.09,-358.5 -12.45,-713.8 7.14,-1065.2 2.9,-52.3 6.22,-105 9.86,-157.1 6.38,-91 13.84,-181.1 22.48,-271.6 0.03,0 0.09,0 0.12,-0.1 82.72,-864 267.98,-1701.5 543.92,-2499 -189.9,749.1 -301.35,1527.3 -325.65,2324.5 164.9,-135.8 325.07,-275.7 482.41,-415.9 443.75,-2755.3 1997.65,-5173.3 4218.45,-6737 84.8,-290.1 139.6,-584.2 179.3,-861.9 m 5714.6,4683.7 c -277.3,0 -557.1,10.6 -838.1,32.1 -436.1,33.3 -864,92 -1282.8,174.5 -51.1,422.3 -170.1,859 -371.1,1090.2 -117.8,135.6 -240.3,173.1 -339.8,173.1 -29.4,0 -56.9,-3.3 -81.6,-8.3 -44.6,-9.1 -89.8,-13.2 -135.4,-13.2 -374.8,0 -772.8,283.7 -1072.1,497.3 l -48.7,34.8 c -294.9,209.7 -569.2,312.6 -855.2,312.6 -190.7,0 -386.7,-45.8 -597.4,-136.2 -106,-45.6 -212.1,-64.1 -314.3,-64.1 -357.4,0 -668.3,226 -772.9,311.4 -43.1,35.1 -86.7,71.7 -130.9,108.9 -179.6,150.8 -379.9,318.9 -604.7,434.4 -355,334.3 -686.8,691.7 -993.6,1070.1 63.5,76.9 149.6,133.6 257.3,169.1 52.8,17.4 107,34.6 162,52 465.4,147 993,313.7 1218.5,813.3 262.4,581 547.4,1185.6 823,1770.3 294.8,625.5 599.7,1272.3 885.3,1907.6 174.5,388 182.3,743.6 22.7,1028.5 -118.6,211.8 -296.9,322.4 -504,322.4 -98.4,0 -203.4,-25.1 -311.6,-76.1 -98.4,-46.4 -189.1,-69.9 -276.7,-69.9 -130.5,0 -254,52.2 -385.1,158.5 -16.1,13.1 -32.5,27.6 -49.3,42.4 -68.8,60.7 -176.7,155.9 -300.8,155.9 -64.2,0 -132.9,-25.6 -202.6,-94.7 -158.1,-156.8 -121.5,-353.1 -92,-510.8 8,-42.7 15.5,-83.1 19.5,-121.6 9.1,-86.1 34.6,-173 59.4,-257 63.6,-216.3 96.1,-354.4 -32.3,-465 -145.2,-124.8 -390.8,-298.1 -636.9,-298.1 -80.6,0 -161.3,18.7 -238.5,63.7 -30.9,18 -62,35.7 -92.9,53.4 -383.18,218.3 -592.23,361.4 -433.22,765.1 108.52,275.6 136.62,511.7 84.01,714.7 189.91,255.4 391.01,502.4 601.91,739.5 230.7,4.3 461.6,109.2 695.8,228.7 l 20.7,10.5 14.1,18.6 c 26.3,34.9 103.9,50.2 178.8,65 169.3,33.5 452.7,89.5 394.2,501.9 -18.9,132.8 -57.9,240.4 -116.7,321.6 326.4,270.7 669.2,522.8 1025.4,754 93.2,-109.3 208.1,-195.5 319.6,-267.6 375.3,-242.6 851.6,-674 989.7,-1351.6 71.2,-349.3 303.4,-576.6 528,-796.5 34.7,-34 69.4,-67.8 103.1,-102 200,-202.3 371.5,-299.1 532.5,-299.1 26.3,0 52.4,2.6 78.2,7.7 205.9,40.9 377.2,244.7 539,641.2 209.6,513.6 450.5,1033.5 683.6,1536.2 136.4,294.2 265.2,572.1 388.5,849.3 212.1,477.3 304.1,947.5 275.1,1429.5 475.5,64.2 960.3,97.3 1451.3,97.3 222.5,0 446,-6.7 671,-20.5 55.4,-2.9 111.4,-7.2 167.3,-11.5 55.9,-4.3 112.5,-8.6 168.3,-14.2 101.9,-9.3 203.4,-20.1 304.3,-32.2 -90.8,-297.9 -139.4,-572.5 -165.3,-771.8 -35.2,-271.3 73.4,-592.7 344,-654.1 22.8,-5.1 44.2,-7.6 64.2,-7.6 179,0.1 250.8,192.6 300.1,324.5 13.4,35.9 26.1,69.8 39.6,99.1 91.9,200.2 182.3,401.8 272.6,603.3 36.9,82.3 73.7,164.5 110.7,246.7 111.8,-23.7 223.1,-49.2 333.4,-76.3 -6.9,-31.8 -17.4,-67.4 -31.8,-107.8 -63.2,-177.3 -110.2,-383.9 -160,-602.6 -162,-711.9 -329.6,-1448.1 -1067.5,-1468.9 -105,-3 -204.8,-132.4 -233.7,-220.6 -280.7,-857.6 -683.2,-1764.4 -1266.7,-2853.6 -220,-410.5 30.4,-892.4 391.3,-1156.3 73.3,-53.6 143.3,-80.6 208.9,-80.6 24.9,0 49.2,3.9 72.8,11.7 155.4,51.4 216.2,247.3 275,436.9 21.6,69.5 42,135.2 65.3,188.8 189.4,435.7 364.2,740.9 601.5,813.6 38.7,11.9 80.2,17.8 124.7,17.8 157.3,0 351.7,-74.5 589.2,-225.4 178.1,-113.2 369.1,-167.8 555.7,-167.8 325.7,0.1 637.6,166.6 841.4,478.8 159.9,244.8 444.2,386.6 761.3,386.6 42,0 84.7,-2.5 127.8,-7.6 377.5,-44.7 684.7,-276.4 801.6,-604.4 11.6,-32.7 12.9,-112.6 -17.9,-238.9 -124.2,-509.4 -749.6,-1159.9 -1365.6,-1420.4 -144.3,-61.1 -326.2,-116.6 -510.2,-116.6 -126.6,0 -254.2,26.3 -371.3,95.1 -274.3,161.3 -572.9,238.9 -865.6,238.9 -512.5,0 -1006.6,-237.9 -1319.1,-680.5 -768.7,-1088.9 -1049.3,-2125.9 -882.2,-3268.3 144.1,-738.4 781.7,-1511.9 1515.9,-1839.3 248.2,-110.6 492.4,-165.9 726.7,-165.9 260.8,0 509.5,68.5 737.9,205.2 97.1,58 184.8,87.1 262.4,87.1 46.1,0 88.5,-10.2 127.2,-30.8 140.2,-74.4 236.6,-289.5 251.6,-561.4 11.7,-211 27.7,-429.4 58.7,-643.4 -1203.3,-459.8 -2504.3,-710.3 -3855.5,-710.3 M 7608.67,17923.3 c 0.11,2.5 0.24,5.6 0.34,8.1 -0.11,-2.6 -0.23,-5.4 -0.34,-8.1 m 0.39,9.2 c 0.11,2.5 0.2,4.7 0.31,7.2 -0.1,-2.3 -0.21,-4.8 -0.31,-7.2 m 0.37,8.6 c 0.11,2.5 0.2,4.4 0.31,6.9 -0.1,-2.3 -0.21,-4.7 -0.31,-6.9 m 0.41,9.1 c 0.08,1.8 0.19,4.3 0.27,6.1 -0.1,-2.1 -0.18,-4 -0.27,-6.1 m 0.41,9.2 c 0.08,1.8 0.15,3.4 0.24,5.2 -0.08,-1.7 -0.16,-3.5 -0.24,-5.2 M 21039,28012.2 v 0 c -516.5,126.2 -1048.7,215.9 -1593.6,265.9 -55.8,5.6 -112.4,9.9 -168.3,14.2 -20.5,1.6 -41,3.1 -61.5,4.6 20.5,-1.5 41,-3 61.5,-4.6 55.9,-4.3 112.5,-8.6 168.3,-14.2 544.9,-50 1077.1,-139.7 1593.6,-265.9 m -1929.2,291.6 v 0 c -224.7,13.7 -448.7,20.5 -670.9,20.5 222.5,0.1 445.9,-6.7 670.9,-20.5 v 0 m -671.5,20.5 c 0.3,0 0.3,0 0.5,0 v 0 c -0.2,0 -0.2,0 -0.5,0"/>
    </clipPath>
    <linearGradient id="linearGradient208" spreadMethod="pad" gradientTransform="matrix(11959.2,-12353.1,-12353.1,-11959.2,10460.1,25726.4)" gradientUnits="userSpaceOnUse" y2="0" x2="1" y1="0" x1="0">
      <stop id="stop202" offset="0" style="stop-opacity:1;stop-color:#27d6ff"/>
      <stop id="stop204" offset="0" style="stop-opacity:1;stop-color:#27d6ff"/>
      <stop id="stop206" offset="1" style="stop-opacity:1;stop-color:#29b3ff"/>
    </linearGradient>
    <clipPath id="clipPath218" clipPathUnits="userSpaceOnUse">
      <path id="path216" d="M 29269.1,16646.3 C 28812.4,10671.1 23598.3,6197.6 17623.2,6654.3 11648,7111 7174.44,12325.1 7631.17,18300.3 8087.9,24275.4 13302,28749 19277.1,28292.2 c 5975.2,-456.7 10448.7,-5670.8 9992,-11645.9"/>
    </clipPath>
    <clipPath id="clipPath330" clipPathUnits="userSpaceOnUse">
      <path id="path328" d="m 8192.19,13930.3 c -275.94,797.5 -461.2,1635 -543.92,2499 73.77,-57.2 146.44,-115.4 218.27,-174.5 24.3,-797.2 135.75,-1575.4 325.65,-2324.5 m -576.38,2927.8 c -19.59,351.4 -22.23,706.7 -7.14,1065.2 v 0 c 0.11,2.7 0.23,5.5 0.34,8.1 0.02,0.4 0.04,0.8 0.05,1.1 0.1,2.4 0.21,4.9 0.31,7.2 0.02,0.4 0.05,1 0.06,1.4 0.1,2.2 0.21,4.6 0.31,6.9 0.03,0.7 0.06,1.5 0.1,2.2 0.09,2.1 0.17,4 0.27,6.1 0.05,1 0.09,2 0.14,3.1 0.08,1.7 0.16,3.5 0.24,5.2 0.13,2.8 0.25,5.5 0.38,8.3 v 0 0 c 2.23,47.7 4.84,95.5 7.77,143.3 -25.33,-424.1 -25.84,-843.6 -2.83,-1258.1 m 21352.09,3290.5 c -98.7,284.6 -208.8,563.8 -330.1,837.5 20.2,2.7 39.3,6.4 57.2,10.8 6.1,1.5 12.3,3.1 18.4,4.8 47.6,-138.4 92.4,-277.8 134.5,-418.6 43.1,-143.6 82.8,-288.6 120,-434.5 M 9998.49,23065 c -22.34,86.3 -59.26,166.6 -110.75,241.3 -116.72,169.5 -255.74,224.5 -396.13,224.5 -15.62,0 -31.27,-0.7 -46.88,-2 164.6,244.3 338.76,481.3 521.97,710.6 33.9,-150.8 135.5,-277.9 286.6,-354.9 110.9,-56.6 221.6,-80.2 332.3,-80.2 4.9,0 9.9,0.1 14.8,0.2 -210.9,-237.1 -412,-484.1 -601.91,-739.5 m 436.41,1722.1 c 663.1,725.7 1422.4,1359.5 2255.6,1882.4 -10.7,-39.7 -21.1,-78.9 -31.3,-117.4 l -5.5,-20.8 c -99.8,-376.9 -3.1,-636.6 159,-826.5 -356.2,-231.2 -699,-483.3 -1025.4,-754 -39.1,54.1 -86.8,96.5 -143.2,127.1 -68,36.9 -146,55.4 -234.8,55.4 -138.5,0 -303.3,-45 -497.4,-135.4 -84.7,-39.5 -172,-77.2 -256.5,-113.7 -72.5,-31.3 -146.5,-63.3 -220.5,-97.1 m 10876.6,2347.5 c -110.3,27.1 -221.6,52.6 -333.4,76.3 10.4,23.1 20.8,46.2 31.3,69.3 60.5,134.3 98.4,162 115.6,166.6 2.1,0.5 4.4,0.8 6.9,0.8 15.7,0 39.4,-10.8 66.7,-30.5 99.4,-71.9 144.5,-136.8 112.9,-282.5 m -4061.5,217.3 c -17.4,289.5 -78.5,583.3 -183.3,885.5 449.9,57.4 908,86.9 1371.6,86.9 0.3,0 0.3,0 0.5,0 h 0.1 c 222.2,0 446.2,-6.8 670.9,-20.5 v 0 c 35.1,-1.9 70.4,-4.3 105.8,-6.9 20.5,-1.5 41,-3 61.5,-4.6 55.9,-4.3 112.5,-8.6 168.3,-14.2 544.9,-50 1077.1,-139.7 1593.6,-265.9 -156.9,38.3 -314.4,73.1 -474.1,104.6 -70.7,14 -142,27.3 -213.3,39.9 -152.4,-257 -261.5,-530 -339.4,-785.9 -100.9,12.1 -202.4,22.9 -304.3,32.2 -55.8,5.6 -112.4,9.9 -168.3,14.2 -55.9,4.3 -111.9,8.6 -167.3,11.5 -225,13.8 -448.5,20.5 -671,20.5 -491,0 -975.8,-33.1 -1451.3,-97.3 m 3843.4,646.8 -0.8,0.2 0.8,-0.2 m -6.6,1.7 -0.4,0.1 c 0.2,-0.1 0.2,-0.1 0.4,-0.1 m -10.4,2.5 c -1,0.3 -1.6,0.4 -2.6,0.7 1,-0.3 1.6,-0.4 2.6,-0.7 m -6.5,1.7 c -1.3,0.3 -2.5,0.6 -3.9,0.9 1.3,-0.3 2.6,-0.6 3.9,-0.9 m -7,1.7 c -2.1,0.5 -3.8,0.9 -5.9,1.5 2.1,-0.6 3.8,-1 5.9,-1.5 m -7.2,1.8 c -2.8,0.7 -5,1.2 -7.8,1.9 2.4,-0.6 5.4,-1.3 7.8,-1.9 m -8.8,2.1 c -2.4,0.6 -4.6,1.2 -7,1.8 2.3,-0.6 4.7,-1.2 7,-1.8"/>
    </clipPath>
    <linearGradient id="linearGradient340" spreadMethod="pad" gradientTransform="matrix(11959.2,-12353.1,-12353.1,-11959.2,10460.1,25726.4)" gradientUnits="userSpaceOnUse" y2="0" x2="1" y1="0" x1="0">
      <stop id="stop334" offset="0" style="stop-opacity:1;stop-color:#bdf2fe"/>
      <stop id="stop336" offset="0" style="stop-opacity:1;stop-color:#bdf2fe"/>
      <stop id="stop338" offset="1" style="stop-opacity:1;stop-color:#bee7fe"/>
    </linearGradient>
  </defs>
  <g clip-path="url(#clipPath198)" id="g194" transform="matrix(0.1333329975605011, 0, 0, -0.1333329975605011, -7279.203613281251, 2839.00634765625)">
    <g transform="scale(1.79761)" id="g200">
      <path id="path210" style="fill:url(#linearGradient208);fill-opacity:1;fill-rule:nonzero;stroke:none" d="m 10270.2,3683.9 c -154.5,0 -310.02,5.84 -466.56,17.8 -792,60.58 -1536.48,271.3 -2207.88,602.35 111.43,-54.96 224.97,-106.64 340.34,-154.81 36.33,-15.13 72.77,-29.93 109.43,-44.4 9.18,114.38 31.71,229.42 67.64,344.8 534.16,-217.85 1110.59,-357.42 1716.67,-403.71 147.59,-11.29 294.16,-16.85 439.66,-16.85 1229.9,0 2380.9,395.69 3321.2,1074.04 40.6,-12.3 84,-18.97 129.8,-18.97 22.8,0 46.2,1.61 70.2,5.12 302.6,49.73 565.3,260.68 739.7,594.01 74.7,142.97 128.8,300.62 159.7,459.39 668.1,825.04 1112.4,1844.67 1232.4,2972.62 5.9,56.85 11,114.2 15.4,171.33 42.2,552.63 4.1,1092.48 -104.7,1608.48 -299.1,-714.7 -730.4,-1356.42 -1261.4,-1897.03 40.8,108.48 91.7,212.23 152.8,312.08 185.4,302.85 110.4,689.53 -174.5,899.45 -332.9,245.3 -655.1,498.5 -898.6,691.7 -14.4,11.4 -29.2,21.1 -43.6,30.5 -63.5,41.5 -95.3,62.3 -35.2,185.4 34.3,70.4 56,76.8 58.3,77.3 0.6,0.2 1.2,0.2 1.9,0.2 14.2,0 45.3,-25.8 66.3,-43.3 11.4,-9.5 22.9,-19.1 34.6,-27.9 80.7,-60.7 162.3,-123.7 241.2,-184.6 87.4,-67.5 177.8,-137.3 266.1,-203.4 87.8,-71 185.2,-107 290.4,-107 16.8,0 33.8,0.9 50.9,2.7 162.4,17.2 335.6,122.2 463.4,280.6 101.6,125.8 146.6,261.1 130.3,391.3 -15.4,123.1 -85.9,235 -203.9,323.4 -22.4,16.8 -45,33.6 -67.7,50.4 -107.3,79.5 -218.2,161.7 -317.7,256.6 -24.2,23.2 -53.6,38.1 -82.2,52.7 -68.6,34.8 -99.9,50.8 -68.3,144 18.8,55.7 39.2,79.1 52,82.5 1.9,0.5 3.8,0.8 5.9,0.8 31.6,0 91.3,-52.9 124.3,-82.2 96.6,-85.7 201.8,-131.1 301.6,-131.1 18.3,0 36.4,1.5 54.4,4.6 53.9,9.3 102.3,14 147.3,14 182.8,0 307.8,-76.9 511.6,-229.4 94.9,-91.3 185.2,-117.6 257.8,-117.6 14,0 27.3,1 39.9,2.7 67.4,-152.3 128.7,-307.6 183.6,-465.9 v 0 0 c -20.7,81.1 -42.8,161.8 -66.8,241.7 -23.4,78.3 -48.3,155.9 -74.8,232.8 v 0 c 26.5,-76.9 51.4,-154.5 74.8,-232.8 206.7,-690 292.4,-1428.7 234.2,-2189.88 -4.7,-60.8 -10,-121.55 -16.4,-181.85 C 15938.3,6001.09 13334.9,3683.9 10270.2,3683.9 m -2675.38,620.6 c -1,0.5 -2.06,1 -3.06,1.5 1.06,-0.5 2,-1 3.06,-1.5 m -5.01,2.45 c -0.67,0.33 -1.33,0.67 -2,1 0.67,-0.33 1.33,-0.67 2,-1 m -4.84,2.39 c -0.33,0.17 -0.78,0.44 -1.11,0.61 0.33,-0.17 0.78,-0.44 1.11,-0.61 m -4.84,2.45 -0.22,0.05 c 0.17,-0.05 0.06,0 0.22,-0.05 m -489.2,272.08 c -1800.96,1114.48 -2952.9,3141.96 -2858.26,5386.77 -8.4,-199.43 -6.93,-397.08 3.97,-592.56 1.61,-29.1 3.46,-58.41 5.48,-87.4 3.55,-50.62 7.7,-100.74 12.51,-151.09 0.01,0 0.05,0 0.06,-0.05 46.02,-480.64 149.08,-946.54 302.59,-1390.18 -105.65,416.72 -167.65,849.63 -181.16,1293.1 91.73,-75.54 180.83,-153.37 268.36,-231.36 246.85,-1532.76 1111.28,-2877.88 2346.7,-3747.76 47.18,-161.38 77.66,-324.99 99.75,-479.47 m 3178.97,2605.52 c -154.2,0 -309.88,5.9 -466.2,17.86 -242.6,18.52 -480.64,51.18 -713.62,97.07 -28.42,234.92 -94.62,477.86 -206.44,606.47 -65.53,75.44 -133.68,96.3 -189.03,96.3 -16.35,0 -31.65,-1.84 -45.39,-4.62 -24.81,-5.06 -49.95,-7.34 -75.32,-7.34 -208.5,0 -429.91,157.82 -596.41,276.64 l -27.09,19.36 c -164.05,116.66 -316.64,173.9 -475.74,173.9 -106.09,0 -215.12,-25.48 -332.33,-75.77 -58.97,-25.36 -117.99,-35.66 -174.85,-35.66 -198.81,0 -371.77,125.73 -429.96,173.24 -23.97,19.52 -48.23,39.88 -72.82,60.58 -99.9,83.89 -211.33,177.4 -336.39,241.65 -197.48,185.97 -382.06,384.79 -552.73,595.29 35.32,42.78 83.22,74.32 143.13,94.07 29.38,9.68 59.53,19.25 90.12,28.93 258.9,81.77 552.4,174.51 677.85,452.43 145.97,323.21 304.52,659.51 457.83,984.81 164,348 333.61,707.8 492.49,1061.2 97.07,215.8 101.41,413.7 12.62,572.1 -65.97,117.9 -165.16,179.4 -280.37,179.4 -54.74,0 -113.15,-14 -173.34,-42.3 -54.74,-25.9 -105.19,-38.9 -153.93,-38.9 -72.59,0 -141.3,29 -214.22,88.1 -8.96,7.3 -18.08,15.4 -27.43,23.6 -38.27,33.8 -98.3,86.8 -167.33,86.8 -35.72,0 -73.94,-14.3 -112.71,-52.7 -87.95,-87.3 -67.59,-196.5 -51.18,-284.2 4.45,-23.7 8.63,-46.2 10.85,-67.6 5.06,-47.9 19.25,-96.3 33.04,-143 35.38,-120.3 53.46,-197.1 -17.97,-258.7 -80.77,-69.4 -217.4,-165.8 -354.3,-165.8 -44.84,0 -89.73,10.4 -132.68,35.4 -17.19,10 -34.49,19.9 -51.68,29.7 -213.16,121.5 -329.45,201.1 -240.99,425.7 60.37,153.3 76,284.6 46.73,397.5 105.65,142.1 217.52,279.5 334.84,411.4 128.34,2.4 256.79,60.8 387.07,127.2 l 11.51,5.9 7.85,10.3 c 14.63,19.5 57.8,28 99.46,36.2 94.19,18.6 251.84,49.8 219.3,279.2 -10.52,73.9 -32.21,133.7 -64.92,178.9 181.57,150.6 372.27,290.8 570.42,419.5 51.85,-60.9 115.77,-108.8 177.79,-148.9 208.78,-135 473.75,-375 550.57,-751.9 39.61,-194.3 168.78,-320.8 293.72,-443.1 19.31,-18.9 38.61,-37.7 57.36,-56.7 111.26,-112.6 206.66,-166.4 296.22,-166.4 14.63,0 29.15,1.4 43.51,4.3 114.54,22.7 209.83,136.1 299.84,356.7 116.6,285.7 250.61,574.9 380.28,854.5 75.88,163.7 147.53,318.3 216.12,472.5 117.99,265.5 169.17,527.1 153.04,795.2 264.52,35.7 534.21,54.2 807.31,54.2 123.8,0 248.1,-3.8 373.3,-11.5 30.8,-1.6 62,-4 93.1,-6.3 31.1,-2.4 62.6,-4.8 93.6,-7.9 56.7,-5.2 113.2,-11.2 169.3,-18 -50.5,-165.7 -77.6,-318.4 -92,-429.3 -19.5,-150.9 40.9,-329.7 191.4,-363.9 12.7,-2.8 24.6,-4.2 35.7,-4.2 99.6,0 139.5,107.1 167,180.5 7.4,20 14.5,38.8 22,55.1 51.1,111.4 101.4,223.6 151.6,335.6 20.6,45.8 41,91.6 61.6,137.3 62.2,-13.2 124.1,-27.4 185.5,-42.5 -3.9,-17.6 -9.7,-37.5 -17.7,-59.9 -35.2,-98.7 -61.3,-213.6 -89,-335.2 -90.1,-396.1 -183.4,-805.6 -593.9,-817.2 -58.4,-1.7 -113.9,-73.6 -130,-122.7 -156.1,-477.1 -380,-981.5 -704.6,-1587.5 -122.4,-228.3 16.9,-496.4 217.7,-643.2 40.7,-29.8 79.7,-44.8 116.2,-44.8 13.8,0 27.3,2.1 40.5,6.5 86.4,28.6 120.2,137.5 152.9,243 12.1,38.7 23.4,75.2 36.4,105 105.3,242.4 202.6,412.2 334.6,452.6 21.5,6.7 44.6,10 69.3,10 87.6,0 195.7,-41.5 327.8,-125.4 99.1,-63 205.3,-93.4 309.2,-93.4 181.1,0.1 354.6,92.7 468,266.4 89,136.2 247.1,215 423.5,215 23.4,0 47.1,-1.4 71.1,-4.2 210,-24.9 380.9,-153.8 445.9,-336.2 6.5,-18.2 7.2,-62.7 -9.9,-132.9 -69.1,-283.4 -417,-645.3 -759.7,-790.2 -80.3,-34 -181.5,-64.8 -283.8,-64.8 -70.4,0 -141.4,14.6 -206.6,52.9 -152.6,89.7 -318.7,132.9 -481.5,132.9 -285.1,0 -560,-132.4 -733.8,-378.6 -427.6,-605.7 -583.7,-1182.63 -490.8,-1818.14 80.2,-410.77 434.9,-841.06 843.3,-1023.19 138.1,-61.53 273.9,-92.29 404.3,-92.29 145.1,0 283.4,38.11 410.5,114.15 54,32.27 102.8,48.46 145.9,48.46 25.7,0 49.3,-5.68 70.8,-17.14 78,-41.39 131.6,-161.05 140,-312.3 6.5,-117.38 15.4,-238.88 32.6,-357.92 -669.4,-255.79 -1393.1,-395.14 -2144.8,-395.14 M 4232.67,9970.64 c 0.06,1.39 0.13,3.12 0.19,4.51 -0.07,-1.45 -0.13,-3.01 -0.19,-4.51 m 0.21,5.12 c 0.06,1.39 0.11,2.61 0.18,4.01 -0.06,-1.28 -0.12,-2.67 -0.18,-4.01 m 0.21,4.79 c 0.06,1.39 0.11,2.44 0.17,3.83 -0.05,-1.27 -0.12,-2.61 -0.17,-3.83 m 0.23,5.06 c 0.04,1 0.1,2.39 0.15,3.39 -0.06,-1.17 -0.1,-2.22 -0.15,-3.39 m 0.22,5.11 c 0.05,1.01 0.09,1.9 0.14,2.9 -0.05,-0.95 -0.09,-1.95 -0.14,-2.9 M 11703.9,15583 v 0 c -287.3,70.3 -583.4,120.2 -886.5,148 -31.1,3.1 -62.5,5.5 -93.6,7.9 -11.4,0.9 -22.9,1.7 -34.3,2.5 11.4,-0.8 22.9,-1.6 34.3,-2.5 31.1,-2.4 62.5,-4.8 93.6,-7.9 303.1,-27.8 599.2,-77.7 886.5,-148 m -1073.2,162.3 v 0 c -125,7.6 -249.6,11.4 -373.2,11.4 123.7,0 248,-3.8 373.2,-11.4 v 0 m -373.6,11.4 c 0.2,0 0.2,0 0.3,0 v 0 c -0.1,0 -0.1,0 -0.3,0"/>
    </g>
  </g>
  <g clip-path="url(#clipPath218)" id="g214" transform="matrix(0.1333329975605011, 0, 0, -0.1333329975605011, -7279.203613281251, 2839.00634765625)">
    <g transform="scale(1.79767)" id="g220">
      <path id="path222" style="fill:#77e236;fill-opacity:1;fill-rule:nonzero;stroke:none" d="m 13177.7,6134.84 c -5.3,298.99 -149.7,590.2 -383.9,773.33 -300.6,235.08 -337.2,702.41 -355.8,1037.12 -14.9,269.96 -167.3,490.64 -442,326.26 -631.2,-377.66 -1450.5,332.93 -1573.7,963.69 -98.2,672.31 102.9,1238.46 481.5,1774.76 262.8,372.3 761.9,452.2 1140.6,229.6 446.4,-262.5 1223.1,384.5 1333.5,837.3 12.6,51.6 23.6,121.9 8.3,165.1 -155.5,436 -796.2,512.2 -1040.9,137.4 -158.6,-242.7 -453.3,-312.8 -699.7,-156.2 -452.9,287.8 -617.6,88.9 -813.8,-362.3 -63.2,-145.4 -84.5,-415.6 -260.9,-286.6 -173.4,126.7 -312.2,363.9 -201.2,571 270.6,505.1 527.6,1043.7 708.5,1596.4 11.8,36.1 52.3,83.2 78,83.9 590.9,16.7 587.2,777.2 734.4,1189.8 51.8,145.5 26.1,215.8 -65.3,281.8 -93.2,67.4 -143.9,2.9 -189.7,-98.6 -76.9,-170.4 -152.7,-341.6 -230.5,-511.1 -40,-87 -62.4,-222.3 -160.9,-199.9 -115.4,26.1 -164.6,172.8 -147.8,301.5 47.8,368.5 177.4,774.1 425.5,1056.1 187.8,213.5 529.6,352.2 777.8,158.3 308.1,-240.9 562.9,-238.4 932.3,-82.9 155.1,65.2 322,135.9 483.6,171.5 273,60 480,260.2 568.1,526.3 92.3,265.1 324.9,443.4 600.4,474.2 173.6,19.4 291.3,105.6 357,308.1 117,360.5 428,615.5 786.5,706.7 533.1,135.7 960,74 1306.9,-342.9 94.7,-113.7 205,-80.7 307.1,-66.8 267,36.5 551,58.2 805.1,101.3 192.6,32.7 457.2,-77.6 567.8,-238.4 74.5,-108.4 169.3,-127.1 264.9,-120.8 73.9,4.9 150.7,4.4 225.8,3.9 58,-0.4 115.1,-0.8 169.1,1.3 298.7,11.6 420.1,-58.9 555.6,-337.8 41.7,-266.3 -159.1,-602.7 -409,-647.5 -72.6,-13 -159.6,-18.5 -241.5,-13.6 -229.5,13.7 -278.6,-127.5 -223.9,-423.1 117.3,-634.2 -158.8,-1533.7 -839.5,-1713.6 -165.1,-43.6 -259,-99.9 -203.4,-361.1 29,-136.7 39.3,-296.3 -37.2,-429.5 -175.2,-305.2 -283.8,-656.4 -212.2,-1004.4 56.3,-273.7 -216.3,-456.1 -446.4,-296.2 -250.1,173.6 -492.2,368.3 -721.5,571.9 -177.1,157.4 -288,120.6 -386.9,-124.6 -85.3,-211.4 -215.9,-422.6 -284.4,-627.9 -87.4,-261.6 -325.2,-428.8 -554.5,-205.6 -266.1,199.4 -411,278.8 -705.2,228.1 -104.1,-18.1 -215.7,30.4 -308.8,113 -94.6,83.9 -204.6,177.4 -273.2,-25.2 -64.5,-190.8 97.2,-190.9 165,-255.6 123.1,-117.4 259.8,-213.3 390.5,-311.4 229.7,-172.1 238.1,-417.7 63.6,-634.1 -170.1,-210.9 -472.5,-372.4 -725.3,-167.8 -171,128 -338.5,261.1 -508.8,389.2 -80.7,60.7 -153.3,163 -245.8,-26.7 -98.1,-201.1 19.8,-225.6 94.4,-284.8 296.8,-235.4 595.3,-468.2 900.2,-692.9 262.4,-193.27 327.9,-550.13 159.9,-824.48 -346.5,-565.9 -339,-1207.18 -174.9,-1885.22 67.2,-277.42 112.6,-549.94 150.4,-834.25 78.2,-564.17 -245.8,-1372.39 -870.5,-1475.07 -248.2,-35.94 -436.7,149.47 -489.8,378.99 -45.8,197.86 -78.5,407.86 -113.5,611.07"/>
    </g>
    <g transform="scale(1.44465)" id="g224">
      <path id="path226" style="fill:#77e236;fill-opacity:1;fill-rule:nonzero;stroke:none" d="m 2392.11,13462.7 c -268.18,679.3 -180.34,1188.3 571.42,1414.5 1114.63,386.3 2217.79,805.4 3307.09,1253.8 183.74,75.6 373.4,169 515.93,-38 120.47,-174.9 95.44,-381.8 11,-596.2 -149.83,-380.3 132.02,-500 394.08,-652.9 220.82,-128.9 484.07,-5.2 687.23,169.6 178.59,153.8 24.92,373.2 5.26,560.4 -13.7,130.9 -77.39,274.3 29.77,380.5 110.68,109.8 206.41,-9.4 288.92,-76.3 165.3,-134.2 330.12,-165.8 532.31,-70.3 177,83.4 358.22,64.1 473.34,-141.4 113.93,-203.4 75.73,-439.3 -18.49,-648.8 -383.62,-853.1 -807.67,-1715.8 -1182.43,-2545.7 -160.87,-356.4 -578.2,-450.6 -913.64,-561.3 -336.57,-111 -372.46,-473.1 -252.21,-757.5 49.57,-117.3 107.95,-204.3 214.69,-170.4 424.81,135 746.2,-192.1 1034.02,-427 220.95,-180.4 533.56,-306.3 824.7,-181.4 348.32,149.6 621.81,109.4 937.04,-114.7 247.06,-175.8 594.16,-437.64 924.16,-370.84 430.4,87.15 556.8,-1148.72 448.1,-1456.69 -297.7,-842.69 -683.8,-1738.55 -1072.7,-2559.72 -211.23,-446.26 -275.68,-908.11 -159.38,-1370.78 58.18,-231.47 97.78,-501.23 134.38,-755.47 22.6,-157.48 119.9,-354.55 27.6,-468.84 -114.9,-142.45 -257.44,26.86 -371.93,107.37 -386.88,274.39 -605.83,750.28 -691.04,1201.32 -63.26,334.76 -140.65,679.48 -183.15,1014.58 -84.66,666.87 -264.5,1380.74 -841.31,1807.91 -519.51,419.27 -631.3,1590.62 -421.01,2158.3 55.04,148.48 263.67,295.79 125.85,477.36 -143.63,189.2 -336.14,436.2 -555.29,368 -449.1,-139.6 -907.18,169.4 -1224,454.7 -308.85,278.2 -621.01,558.2 -971.16,787.9 -515.07,332.6 -616.98,976 -762.74,1508 -123.73,451.6 -728.04,991.7 -1202.81,967.4 -347.59,-17.8 -489.12,-401.9 -663.6,-667.4"/>
    </g>
    <g transform="scale(1.73773)" id="g228">
      <path id="path230" style="fill:#77e236;fill-opacity:1;fill-rule:nonzero;stroke:none" d="m 8479.05,16293.3 c 117.11,53.1 241.7,109.8 351.78,157.6 235.48,102.4 652.75,409 831.37,32 255.62,-539.4 282.04,-1026.2 52.89,-1541.8 -195.14,-438.9 -427.69,-908.8 -617.65,-1374.4 -159.28,-390.3 -322.77,-428.4 -566.02,-182.3 -140.13,141.6 -304.02,274.2 -347.52,487.7 -71.36,350 -302.47,626 -595.03,815.1 -162,104.8 -332.85,255.3 -250.68,565.6 70.96,268.1 156.36,605.4 439.37,722.9 229.9,95.6 467.68,209.5 701.89,315.6 -0.11,0.6 -0.28,1.3 -0.4,2"/>
    </g>
    <g transform="scale(1.54301)" id="g232">
      <path id="path234" style="fill:#77e236;fill-opacity:1;fill-rule:nonzero;stroke:none" d="m 7291,15634 c -227.35,-116 -421.32,-195.7 -616.14,-96.3 -82.24,42 -148.08,116.6 -156.96,221.7 -12.18,144.4 103.43,163 181.59,201.9 131.63,65.5 266.88,117.8 400.06,179.8 236.94,110.3 500.84,158.9 550.1,-188.6 45.36,-319.8 -268.57,-199.3 -358.65,-318.5"/>
    </g>
    <g transform="scale(1.67864)" id="g236">
      <path id="path238" style="fill:#77e236;fill-opacity:1;fill-rule:nonzero;stroke:none" d="m 15829.2,7932.12 c -28.1,248.05 -23.6,568.07 219.7,705.39 182,102.7 186.8,-153.88 210.5,-297.62 40.6,-247.05 40.3,-568.14 -212.9,-706.05 -202.9,-110.45 -159.6,166.86 -217.3,298.28"/>
    </g>
    <g transform="scale(1.58758)" id="g240">
      <path id="path242" style="fill:#77e236;fill-opacity:1;fill-rule:nonzero;stroke:none" d="m 12008.5,15861.8 c 39.9,-221.5 115.3,-553.1 -131.5,-681.1 -155,-80.3 -158,157.5 -171.9,283 -24.8,223 -120.8,563.8 106.8,710.2 196.1,126.1 115.3,-245.8 196.6,-312.1"/>
    </g>
    <g transform="scale(1.51432)" id="g244">
      <path id="path246" style="fill:#77e236;fill-opacity:1;fill-rule:nonzero;stroke:none" d="m 12129.7,16076.2 c 23.8,-153.4 -3.2,-271.3 -132.9,-319.4 -88.3,-32.7 -151.5,-0.5 -173.3,118.7 -27.2,148.9 10.9,275.5 117.8,347.4 114.4,77.1 160.4,-22.8 188.4,-146.7"/>
    </g>
    <g transform="scale(1.79767)" id="g248">
      <path id="path250" style="fill:#54a520;fill-opacity:1;fill-rule:nonzero;stroke:none" d="m 13234.1,6140.17 c 6.1,-35.49 12.1,-71.25 18.2,-107.08 27.9,-165.32 56.8,-336.27 93.9,-496.64 42.9,-185.3 194.5,-369.2 426.7,-335.83 607.4,99.86 893.3,902.73 822.7,1411.5 -43.3,325.25 -89.3,580.75 -149.3,828.68 -193.2,797.65 -135.4,1410.28 181.6,1928 154.6,252.44 92.1,574.69 -145.3,749.6 -334.3,246.4 -657.5,500.4 -901.7,694.1 -10.4,8.2 -22.4,16.1 -35.2,24.5 -71.1,46.5 -178.6,116.7 -74.9,329.3 40.5,83.1 83.8,127.1 136.1,138.2 66.8,14.3 120.7,-30.6 164.1,-66.8 10,-8.3 20,-16.7 30.2,-24.3 81.3,-61.2 163.1,-124.4 242.3,-185.6 87.1,-67.2 177.1,-136.7 266.4,-203.6 79.4,-64.2 166.3,-91.2 260.1,-81.1 133.2,14.1 278.1,103.6 387.5,239.2 81.8,101.4 118.5,207.4 106.1,306.4 -11.5,92 -66.7,177.5 -159.6,247.1 -22.2,16.7 -44.7,33.4 -67.2,50 -110.1,81.6 -223.9,165.9 -328.4,265.7 -12.2,11.7 -33.2,22.3 -55.5,33.7 -69.9,35.5 -186.9,95 -124,280.8 30.2,89.4 72.8,140.2 129.9,155.4 88.1,23.3 169.1,-48.4 234.1,-106.1 86.9,-77.1 182.3,-113.3 261.9,-99.7 315.2,54.4 477.5,-35.3 748.5,-238.4 l 5.6,-4.8 c 75.2,-73.1 151.4,-100.9 226.8,-82.7 98,23.8 187.9,125.6 234.7,265.7 40,120 100.8,242.2 159.5,360.5 44.3,88.9 89.9,181 126.1,270.6 60.8,150.6 128.7,230.1 213.6,250 78.8,18.5 162.4,-14.7 263.2,-104.2 241.5,-214.5 482.4,-405.5 716.1,-567.7 87.9,-61.1 187.5,-66.5 266.5,-14.3 78.5,51.7 114,148.6 92.5,252.7 -66.7,324 6.9,675.2 218.7,1043.9 55.7,97.3 65.9,224.7 30.8,389.7 -61.1,287.3 43.2,374.3 244.2,427.3 619.9,163.9 918.3,1000.4 798.4,1648.8 -38.4,208.1 -25.1,335.4 43.4,412.9 51.5,58.2 129.8,83.4 239.4,76.8 74.6,-4.5 157.8,0.2 228.1,12.8 212.6,38.1 397.5,331.8 364.4,575.2 -122.9,250.2 -222.5,309 -498.9,298.2 -55.1,-2.2 -114.1,-1.8 -171.1,-1.4 -73.9,0.5 -150.2,1 -222.3,-3.7 -88.3,-5.9 -217.2,2.8 -315,145.2 -97.2,141.3 -341,243.5 -511.9,214.7 -153.7,-26.1 -320.3,-44.7 -481.5,-62.7 -107.6,-12 -218.9,-24.4 -325.4,-38.9 -10.9,-1.5 -21.9,-3.2 -32.9,-4.9 -93,-14.5 -220.4,-34.3 -325.2,91.5 -305.1,366.6 -690.5,466.7 -1249.5,324.3 -361.5,-91.9 -640.6,-342.2 -746.8,-669.4 -69.2,-213.5 -197.8,-323.7 -404.5,-346.8 -257.5,-28.8 -469.5,-196.1 -553.3,-436.6 -95.8,-289.4 -323.7,-500.1 -609.3,-562.9 -154.1,-33.9 -312.9,-100.8 -466.6,-165.4 l -7.3,-3.1 c -350.4,-147.4 -638.1,-183.7 -988.9,90.5 -218.5,170.8 -524,49.7 -700.6,-151 -284.6,-323.6 -380.3,-781.8 -412,-1026.1 -13,-100.8 23.1,-220.9 104.3,-239.3 23.6,-5.3 39,17.5 72.1,105.8 7.8,20.9 15.9,42.6 25.1,62.7 51,111 101.1,222.8 151.3,334.6 26.3,58.8 52.6,117.4 79,176.1 30.1,66.6 70,137.1 138.2,155.2 43.2,11.5 88.9,0 136.1,-34.1 117.9,-85.3 142.6,-185.7 85.3,-346.5 -32.9,-92.3 -58.4,-204 -85.2,-322.3 -90,-395.1 -201.8,-886.2 -693.8,-904.7 -10,-7.2 -27.6,-28.9 -32.8,-45.2 -158.3,-483.5 -384.7,-993.7 -712.5,-1605.6 -91.9,-171.5 23.4,-380.8 184.8,-498.8 23.8,-17.4 44.2,-25.7 54.7,-22.2 31.2,10.3 60.9,105.9 80.6,169.3 12.4,39.8 25.2,81.1 40.6,116.5 121.1,278.8 231.2,462.3 405.1,515.5 133,40.8 288.9,0.1 490.6,-128.1 217.5,-138.2 479.2,-79.6 622.2,139.4 124.4,190.5 355,290.6 602.4,261.3 252.8,-30 459.3,-187.3 539,-410.6 16.2,-46.1 14,-112.4 -6.7,-197.3 -77.7,-318.7 -448,-707.8 -825.4,-867.4 -228.5,-96.7 -433,-98.5 -591.5,-5.3 -368.7,216.8 -826.9,125 -1065.9,-213.5 -409.9,-580.5 -559.8,-1131.54 -471.7,-1733.98 73.2,-374.77 400.6,-770.78 778,-939 179,-79.82 447.6,-141.9 710.8,15.58 152.4,91.12 262.3,68.87 327.6,34.15 114.4,-60.74 189.1,-212.38 199.8,-405.74 20.5,-371.37 65,-785.3 334.2,-995.79 247.2,-193.36 398.6,-496.81 405.5,-812.45 m 485.9,-1056.2 c -253.4,0 -432.5,205.55 -483.7,427.06 -37.9,163.65 -67.1,336.32 -95.3,503.26 -6.3,37.16 -12.6,74.15 -18.9,110.98 l -0.8,8.56 c -5,283.54 -140.4,556.39 -362.3,729.89 -306.3,239.59 -355.4,682.28 -377.4,1078.46 -8.3,151.25 -61.9,270.9 -139.9,312.29 -57.8,30.71 -130.7,20.14 -216.7,-31.32 -241.3,-144.35 -523,-151.92 -814.8,-21.86 -408.4,182.12 -763.1,612.4 -843.2,1023.16 -93,635.49 63.1,1212.35 490.7,1818.05 273.1,386.9 795.6,492.5 1215.3,245.7 159.8,-93.9 354.9,-45.4 490.4,11.9 342.6,144.9 690.5,506.8 759.6,790.2 17.2,70.2 16.4,114.7 10,132.9 -65,182.4 -235.9,311.3 -445.9,336.2 -204.3,24.1 -393.9,-56.6 -494.6,-210.9 -178.3,-273 -505.2,-345.8 -777.2,-173 -169.4,107.7 -299.4,145.5 -397.1,115.5 -132,-40.4 -229.2,-210.2 -334.6,-452.6 -13,-29.8 -24.3,-66.3 -36.3,-105 -32.7,-105.5 -66.6,-214.4 -153,-243 -47.7,-15.8 -100.4,-2.9 -156.7,38.3 -200.8,146.8 -340.1,414.9 -217.7,643.2 324.6,605.9 548.5,1110.4 704.7,1587.4 16,49.1 71.5,121.1 130,122.7 410.4,11.6 503.7,421.1 593.8,817.1 27.7,121.7 53.8,236.6 89,335.3 44.7,125.4 22.2,168.3 -45.1,217.1 -17.7,12.7 -32.5,18.7 -41,16.5 -9.5,-2.6 -30.6,-18 -64.3,-92.7 -26.4,-58.5 -52.7,-117.1 -79,-175.8 -50.2,-112.1 -100.5,-224.2 -151.6,-335.6 -7.5,-16.3 -14.6,-35.1 -22,-55.1 -30.5,-81.5 -76.5,-204.9 -202.7,-176.3 -150.5,34.2 -210.9,213 -191.3,363.9 33.4,257.1 134.8,740.1 439.1,1086.1 210.7,239.5 581.9,378.8 854.9,165.5 272.5,-213 501.7,-232.7 875.7,-75.4 l 7.2,3 c 158.3,66.6 322.1,135.5 486.2,171.6 246.3,54.2 443.2,237 526.7,489 98.4,282.7 346.5,478.8 647.6,512.5 161.6,18.1 254.2,98.6 309.6,269.4 118.3,364.3 427.2,642.4 826.3,744 606.8,154.5 1027.5,43 1364.2,-361.5 60.7,-72.9 123.5,-67.4 221,-52.2 11.8,1.9 23.5,3.7 35.1,5.2 107.9,14.8 219.8,27.3 328.1,39.3 159.6,17.8 324.6,36.2 475.2,61.7 215.3,36.6 500.9,-83.4 623.7,-262 51.6,-75.2 113.8,-103.2 214.6,-96.5 76.2,5 154.6,4.5 230.4,4 58.3,-0.5 113.5,-0.8 166.1,1.3 322.7,12.6 464.9,-73.8 608.6,-369.5 l 3.6,-7.6 1.3,-8.3 c 47.7,-303.7 -181.8,-663 -454.7,-711.9 -80,-14.3 -170.5,-19.4 -254.8,-14.4 -72.8,4.5 -121.1,-8.4 -148.2,-38.9 -42.1,-47.6 -47.6,-151.5 -16.9,-317.5 62.1,-336 15.7,-732.1 -124.1,-1059.6 -161,-377.2 -429.7,-632.5 -756.5,-718.9 -140.1,-37.1 -211.1,-67 -162.6,-294.8 41.1,-193.3 26.9,-346.8 -43.4,-469.3 -197.6,-344.1 -266.9,-668.8 -205.9,-964.9 30.9,-150.3 -23.1,-292 -140.9,-369.7 -117.1,-77.3 -267.7,-71.3 -393,15.7 -237.4,164.8 -481.9,358.7 -726.8,576.2 -69,61.3 -123.7,87.8 -162.4,78.6 -44.8,-10.5 -90.1,-71.9 -134.7,-182.3 -37.9,-93.8 -84.5,-187.8 -129.7,-278.7 -59.6,-120 -116,-233.4 -153.5,-345.9 -59.9,-179.3 -177.7,-306.3 -315.2,-339.6 -78.9,-19.2 -199.9,-15.7 -329.4,108.9 -254,190 -385.5,262.6 -658.9,215.4 -115.3,-19.9 -241.6,25.1 -356,126.5 -35.2,31.2 -100.8,89.3 -130.2,81.4 -12.8,-3.4 -33.2,-26.8 -52,-82.5 -31.6,-93.2 -0.3,-109.2 68.3,-144.1 28.6,-14.5 58,-29.4 82.2,-52.6 99.5,-94.9 210.4,-177.1 317.7,-256.6 22.7,-16.8 45.3,-33.6 67.7,-50.4 118,-88.4 188.5,-200.2 203.9,-323.4 16.3,-130.2 -28.8,-265.5 -130.3,-391.3 -127.8,-158.4 -301,-263.3 -463.4,-280.5 -124.7,-13.4 -239.5,21.8 -341.3,104.3 -88.3,66 -178.7,135.8 -266.1,203.3 -78.9,60.9 -160.5,123.9 -241.2,184.6 -11.6,8.8 -23.2,18.4 -34.6,27.9 -21.9,18.3 -54.9,45.8 -68.2,43.2 -2.3,-0.5 -23.9,-7 -58.3,-77.4 -60,-123.1 -28.2,-143.9 35.2,-185.4 14.4,-9.4 29.3,-19.1 43.6,-30.4 243.5,-193.2 565.7,-446.5 898.6,-691.7 284.9,-209.96 359.9,-596.63 174.5,-899.46 -300.3,-490.42 -353.7,-1075.9 -168.1,-1842.45 60.2,-248.6 108.3,-515.5 151.4,-840.08 41.5,-299.22 -24.8,-652.29 -177.5,-944.23 -174.4,-333.32 -437.1,-544.26 -739.7,-593.99 -24,-3.5 -47.4,-5.12 -70.2,-5.12"/>
    </g>
    <g transform="scale(1.45138)" id="g252">
      <path id="path254" style="fill:#54a520;fill-opacity:1;fill-rule:nonzero;stroke:none" d="m 7258.95,10445.6 c 224.48,0 406.58,-240.1 532.39,-405.8 127.05,-167.4 26.12,-316.51 -47.54,-425.37 -28.11,-41.54 -54.64,-80.68 -67.8,-116.3 -196.91,-531.63 -97.28,-1670.41 397.35,-2069.68 614.72,-455.09 784.15,-1225.18 862.83,-1845.07 30.66,-241.36 80.41,-491.88 128.57,-734.2 18.05,-90.95 36.1,-181.55 53.05,-271.47 94.88,-501.93 335.27,-921.68 659.58,-1151.73 22.95,-16.12 46.65,-35.34 69.66,-54.02 54.5,-44.09 122.09,-98.94 164.16,-94.67 5.1,0.55 20.3,2.21 41.6,28.67 44.4,54.91 16.4,163.57 -10.6,268.64 -12.2,47.68 -24.9,97.01 -31.7,144.14 -32.62,227.23 -73.27,510.06 -132.32,744.94 -116.16,462.32 -61.25,937.11 163.32,1411.35 430.6,909.34 798.8,1788.09 1065,2541.23 78.5,222.41 16.3,1030.54 -209.2,1289.95 -66.2,76.27 -121.5,75.44 -157,68.21 -343.8,-69.73 -688.9,176.87 -940.94,356.88 l -33.41,23.7 c -297.86,211.8 -548.31,242.9 -864.63,107 -270.43,-116.1 -604.18,-44.8 -892.67,190.6 -30.18,24.6 -60.7,50.2 -91.7,76.2 -260.58,218.8 -529.98,445.1 -872.14,336.4 -185.99,-59.1 -268.24,135.6 -299.22,208.9 -84.07,198.9 -90.3,414.4 -16.68,576.7 58.92,129.7 166.18,223.5 310.18,271 36.93,12.2 74.83,24.2 113.34,36.3 307.02,97 624.58,197.4 754.25,484.7 181.28,401.4 377.85,818.4 567.94,1221.8 202.91,430.4 412.71,875.5 608.94,1312 70.69,157.1 131.67,385.8 21.22,583 -85.64,152.8 -213.59,190.3 -380.33,111.6 -218.48,-103.1 -410.3,-78 -603.7,79 -12.54,10.1 -25.28,21.3 -38.37,32.8 -95.29,84.1 -117.69,85.8 -156,47.8 -53.6,-53.2 -44.16,-120.9 -24.38,-227 5.78,-30.8 11.71,-62.7 15.08,-94.8 4.97,-46.8 19.98,-98 35.97,-152.3 42.86,-145.6 96.25,-326.9 -65.18,-465.8 -273.95,-235.7 -552.71,-300 -764.79,-176.2 -20.88,12.1 -41.82,24.1 -62.77,36 -243.07,138.5 -518.6,295.5 -359.3,699.9 89.42,227 88.31,394.9 -3.49,528.2 -97.66,141.8 -210.23,103.9 -400.68,24.6 l -28.67,-11.9 c -1095.13,-450.7 -2203.88,-871.1 -3295.48,-1249.4 -307.09,-92.4 -500.45,-230.6 -593.89,-423.4 -93.04,-191.9 -87.24,-441 18.28,-758.4 7.73,13.1 15.56,26.6 23.46,40.2 141.26,242.6 301.33,517.7 617.43,533.8 516.57,26.2 1139.69,-545.2 1268.23,-1014.2 18.66,-68.2 36.65,-138.2 54.85,-209.1 123.32,-480.8 250.82,-977.8 674.83,-1251.6 358.08,-234.9 671.98,-517.6 975.54,-791.1 435.7,-392.4 822.91,-539.6 1150.8,-437.7 33,10.2 65.31,15 96.73,15 M 10006.3,3137.29 c -91.67,0 -174.07,66.69 -247.31,126.09 -22.12,17.91 -43,34.93 -62.22,48.43 -353.8,250.94 -614.79,702.78 -716.28,1239.86 -16.95,89.5 -34.87,179.76 -52.85,270.29 -48.64,244.67 -98.87,497.6 -130.15,743.78 -75.17,592.33 -235.09,1326.73 -809.65,1752.12 -558.15,450.54 -652.82,1662.14 -442.95,2228.85 19.01,51.46 51.6,99.56 83.09,146.06 82.34,121.61 112.17,183.21 52.02,262.51 -119.82,157.82 -300.82,396.22 -476.31,341.82 -378.26,-117.7 -810.92,39.6 -1285.83,467.3 -299.66,270 -609.52,549.1 -958.23,777.8 -469.56,303.3 -610.05,850.9 -733.99,1334 -18.02,70.2 -35.8,139.5 -54.29,207 -114.31,417.3 -680.69,934.4 -1126.25,911.5 -240.49,-12.2 -374.3,-242.2 -503.73,-464.5 -32.9,-56.6 -66.93,-115 -101.93,-168.3 l -73.98,-112.6 -49.46,125.3 c -166.18,420.9 -186.78,749.7 -63.01,1005.1 109.91,226.7 337.57,393.4 676.67,495.4 1086.37,376.6 2192.62,796 3285.29,1245.7 l 28.2,11.7 c 169.99,70.7 402.81,167.5 569.5,-74.5 118.96,-172.6 124.95,-388.1 18.42,-658.7 -109.56,-278.1 34.48,-376.7 298.49,-527.1 21.29,-12.2 42.72,-24.4 64.01,-36.8 215.45,-125.7 470.31,47.3 603.15,161.5 88.46,76.2 66.07,171.4 22.25,320.4 -17.09,57.9 -34.66,117.7 -40.92,177.1 -2.76,26.5 -7.93,54.3 -13.44,83.7 -20.33,108.7 -45.54,243.9 63.39,352 140.83,139.6 274.84,21.3 346.84,-42.2 11.57,-10.2 22.87,-20.2 33.97,-29.2 150.89,-122.4 287.24,-140.6 455.97,-61 231.23,109 441.31,45.6 561.95,-169.7 109.97,-196.3 104.59,-441.4 -15.64,-708.7 -196.78,-437.7 -406.85,-883.4 -609.97,-1314.3 -189.88,-402.9 -386.25,-819.4 -567.04,-1219.8 -155.37,-344.2 -518.89,-459 -839.55,-560.3 -37.89,-12 -75.24,-23.9 -111.62,-35.8 -107.48,-35.5 -183.75,-101.5 -226.69,-196.1 -57.77,-127.3 -51,-300.9 18.12,-464.4 63.68,-150.6 100.95,-138.7 128.17,-130.2 415.19,131.9 741.91,-142.2 1004.35,-362.5 30.45,-25.6 60.5,-50.8 90.19,-75 92.67,-75.6 420.5,-311.5 749.08,-170.4 362.76,155.7 662.06,119.4 1000.84,-121.5 l 33.56,-24 c 231.27,-165.1 548.07,-390.86 831.97,-333.54 74.4,15.09 185.1,7.51 290.3,-113.55 271.8,-312.59 326.3,-1171.15 235.5,-1428.15 -267.7,-757.63 -637.8,-1640.99 -1070.5,-2554.61 -210.25,-444.12 -262.13,-887.36 -154,-1317.43 60.7,-241.84 102,-528.67 135.1,-759.07 5.7,-39.69 16.9,-83.16 28.8,-129.26 33.9,-132.01 72.3,-281.66 -16.1,-391.21 -38.3,-47.54 -84,-74.41 -135.7,-79.86 -6.5,-0.69 -13.1,-1.03 -19.6,-1.03"/>
    </g>
    <g transform="scale(1.73773)" id="g256">
      <path id="path258" style="fill:#54a520;fill-opacity:1;fill-rule:nonzero;stroke:none" d="m 8545.06,16259.1 0.17,-1 -41.72,-20 c -69.46,-31.5 -139.32,-63.7 -209.13,-95.8 -163.14,-75.2 -331.87,-152.9 -494.43,-220.4 -252.11,-104.8 -335.33,-419.3 -402.14,-672 l -3.22,-12 c -66.7,-252 42.12,-382.8 225.98,-501.7 234.74,-151.7 532.94,-422.8 620.53,-852.5 33.83,-165.9 149.1,-278.8 271.1,-398.2 20.48,-20.1 40.86,-40 60.71,-60.1 102.37,-103.5 182.65,-147.8 245.66,-135.2 74.35,14.7 149.97,115.2 224.78,298.6 121.65,298 260.92,598.4 395.57,889 78.32,168.8 152.27,328.4 222.82,487 216.38,486.8 199.75,961.3 -52.31,1493.2 -34.64,73.1 -79.41,118.2 -136.9,137.7 -135.75,46 -329.62,-53.4 -485.4,-133.3 -47.54,-24.3 -92.42,-47.3 -132.99,-65 -96.51,-41.9 -204.41,-90.8 -308.74,-138.1 l -0.34,-0.2 m 251.24,-3087.9 c -92.65,0 -191.34,55.7 -306.43,172.1 -19.4,19.7 -39.36,39.2 -59.33,58.7 -129.25,126.6 -262.87,257.4 -303.85,458.4 -79.47,389.9 -353.56,638.2 -569.53,777.8 -175.75,113.6 -365.88,287.9 -275.42,629.6 l 3.17,12 c 73.43,277.5 164.81,622.9 470.27,749.8 160.49,66.8 328.18,144 490.35,218.7 55.93,25.8 111.81,51.5 167.57,77 v 0 l 41.84,21.3 42.29,19.1 c 104.74,47.4 212.98,96.5 310.3,138.8 37.23,16.1 80.5,38.3 126.31,61.8 175.46,90 393.79,201.9 576.21,139.9 87.7,-29.7 156.64,-96.5 204.92,-198.2 267.71,-565 284.69,-1070.4 53.46,-1590.6 -70.95,-159.5 -145.07,-319.4 -223.56,-488.7 -134.14,-289.3 -272.77,-588.5 -393.39,-884.1 -93.11,-228.1 -191.69,-345.4 -310.18,-369 -14.84,-2.9 -29.86,-4.4 -45,-4.4"/>
    </g>
    <g transform="scale(1.54432)" id="g260">
      <path id="path262" style="fill:#54a520;fill-opacity:1;fill-rule:nonzero;stroke:none" d="m 7387.07,16143.4 c -68.83,0 -157.74,-25.2 -265.74,-75.5 -56.53,-26.4 -113.97,-51.1 -169.46,-75.2 -75.63,-32.6 -153.86,-66.4 -228.71,-103.7 -14.31,-7 -29.72,-13.6 -45.39,-20.3 -80.17,-33.6 -105.55,-50.1 -99.92,-117.1 8.16,-97 79.45,-147.2 121.22,-168.6 152.75,-77.9 304.08,-31.2 544.12,90.4 47.85,51.8 120.05,66 184.35,78.7 113.84,22.6 171.02,33.9 150.62,177.7 -14.11,99.8 -48.04,164.9 -100.82,193.6 -24.74,13.3 -54.85,20 -90.27,20 m -532.53,-729.3 c -71.68,0 -143.36,15.3 -215.17,51.9 -112.42,57.3 -182.56,157.5 -192.45,274.5 -14.15,167.7 107.3,218.8 179.89,249.4 13.07,5.5 25.9,10.8 37.74,16.8 78.1,38.8 157.94,73.3 235.19,106.7 54.72,23.6 111.25,48 166.09,73.6 206.24,96 361.33,113 474.13,51.8 91.36,-49.5 147.96,-147.3 168.29,-290.5 37.88,-267.1 -145.63,-303.3 -255.26,-325 -48.5,-9.6 -98.75,-19.5 -115.78,-42.1 l -9.13,-12.1 -13.4,-6.8 c -154.89,-79 -307.58,-148.2 -460.14,-148.2"/>
    </g>
    <g transform="scale(1.68878)" id="g264">
      <path id="path266" style="fill:#54a520;fill-opacity:1;fill-rule:nonzero;stroke:none" d="m 15792.9,7899.67 c 17,-42.63 25.3,-92.73 33.3,-141.34 7.3,-43.88 20.8,-125.54 39.8,-134.78 3.6,-1.71 20.3,-1.95 55.5,17.3 174.3,94.86 235.2,309.98 181,639.27 -3.2,19.25 -6,40.51 -9,62.65 -8.7,65.61 -25.1,187.77 -59.3,204.82 -8.8,4.45 -28.8,-1.06 -52.1,-14.21 -163.6,-92.37 -225.5,-299.68 -189.2,-633.71 m 77.7,-397.15 c -20.5,0 -39.5,4.38 -57.3,13.03 -74.7,36.48 -90.4,131.39 -105.6,223.18 -7.4,44.7 -15,91.01 -28.5,121.62 l -3.7,8.35 -1,9.06 c -16.3,144.13 -65.9,582.73 248.6,760.2 61.9,34.99 117.3,40.73 164.7,17.17 91.3,-45.48 109.1,-178.77 124.8,-296.43 2.8,-20.9 5.4,-40.92 8.5,-59.09 78.9,-479.76 -88.1,-680.44 -242.1,-764.34 -40.2,-21.85 -76.1,-32.75 -108.4,-32.75"/>
    </g>
    <g transform="scale(1.58498)" id="g268">
      <path id="path270" style="fill:#54a520;fill-opacity:1;fill-rule:nonzero;stroke:none" d="m 11894.8,16161.3 c -5.2,-1.7 -14.5,-5.5 -29,-14.7 -158.1,-101.7 -123.7,-333.4 -93.4,-537.6 5.9,-39.7 11.5,-77.8 15.4,-112.9 1.5,-13.6 2.9,-28.5 4.4,-44.2 4.7,-50 17,-182.4 46,-198.3 0.9,-0.6 10,-0.9 28.8,8.8 178.2,92.4 152.7,317.1 104.4,579.4 l -2.9,16.1 c -33.7,43.7 -41.7,111 -49.9,181.7 -4.3,35.9 -11.8,100.1 -23.8,121.7 z m -55,-1035.9 c -26.3,0 -47.4,7.3 -62.9,15.8 -88.8,48.5 -101.7,187.2 -112.2,298.7 -1.3,14.9 -2.7,29.1 -4.1,42 -3.7,33.7 -9.2,70.2 -14.8,108.3 -32.5,218.4 -76.8,517.6 150.8,664.1 57.9,37.2 109.3,45.7 152.8,25.1 74,-34.9 85.3,-131.5 96.3,-224.9 4.5,-38.9 12.2,-103.8 24.2,-118.4 l 18.3,-14.9 2.9,-22.1 6.3,-34.1 c 41.9,-228 105.3,-572.8 -171.5,-716.2 -33.1,-17.2 -61.8,-23.4 -86.1,-23.4"/>
    </g>
    <g transform="scale(1.51681)" id="g272">
      <path id="path274" style="fill:#54a520;fill-opacity:1;fill-rule:nonzero;stroke:none" d="m 11993.6,16156.4 c -3.4,0 -14.7,-2.2 -34.6,-15.6 -108.6,-73.2 -102.5,-206.4 -89.2,-279.3 7,-37.6 19.2,-64.7 32.9,-72.4 13.3,-7.6 37.8,-0.4 51.1,4.6 59.6,22.1 116.9,68.3 90.2,243.6 -24.6,108 -48.4,118.6 -49.4,119 z m -76.2,-504.5 c -29.4,0 -56.5,7 -80.9,20.9 -50.4,28.7 -83.5,84.1 -98.2,164.6 -32.7,178.8 20.5,329.8 146,414.3 57.1,38.5 110.9,48.3 159.7,28.9 80.1,-31.8 112.1,-132.2 131,-216 l 0.9,-4.5 c 31.8,-205.1 -27.3,-337 -175.6,-391.9 -29.3,-10.9 -57,-16.3 -82.9,-16.3"/>
    </g>
  </g>
  <path id="path322" style="fill:#b1f8df;fill-opacity:1;fill-rule:nonzero;stroke:none" d="M -6264.67 448.164 C -6264.668 448.094 -6264.668 448.071 -6264.666 448.002 C -6264.666 448.048 -6264.668 448.117 -6264.67 448.164 M -6264.624 447.052 C -6264.619 446.982 -6264.617 446.936 -6264.615 446.866 C -6264.617 446.913 -6264.622 447.005 -6264.624 447.052 M -6264.573 445.939 C -6264.571 445.847 -6264.566 445.754 -6264.562 445.661 C -6264.566 445.754 -6264.571 445.847 -6264.573 445.939 M -6264.524 444.851 C -6264.52 444.712 -6264.513 444.549 -6264.506 444.433 C -6264.513 444.573 -6264.518 444.712 -6264.524 444.851 M -6264.473 443.738 C -6264.457 443.368 -6264.441 442.997 -6264.423 442.626 C -6264.441 442.997 -6264.457 443.368 -6264.473 443.738 M -6264.423 442.626 C -6264.126 436.255 -6263.776 429.883 -6263.387 423.489 L -6263.387 423.512 C -6263.778 429.883 -6264.126 436.255 -6264.423 442.626 M -6019.914 -298.159 C -5997.966 -330.735 -5974.744 -362.338 -5950.314 -392.921 C -5950.314 -392.898 -5950.314 -392.898 -5950.314 -392.898 C -5974.742 -362.338 -5997.962 -330.735 -6019.91 -298.159 C -6019.912 -298.159 -6019.912 -298.159 -6019.914 -298.159 M -5887.913 -465.927 C -5799.474 -562.727 -5698.26 -647.202 -5587.127 -716.941 C -5587.141 -716.941 -5587.141 -716.918 -5587.141 -716.918 C -5698.235 -647.202 -5799.474 -562.681 -5887.888 -465.927 C -5887.901 -465.927 -5887.901 -465.927 -5887.913 -465.927 M -5003.648 -925.972 C -4943.642 -933.618 -4882.592 -937.557 -4820.777 -937.557 C -4882.592 -937.557 -4943.666 -933.618 -5003.648 -925.972 M -4717.141 -933.896 C -4721.845 -934.244 -4726.548 -934.568 -4731.228 -934.823 C -4726.548 -934.568 -4721.845 -934.244 -4717.141 -933.896 M -4820.684 -937.557 L -4820.707 -937.557 L -4820.684 -937.557"/>
  <g clip-path="url(#clipPath330)" id="g326" transform="matrix(0.1333329975605011, 0, 0, -0.1333329975605011, -7279.203613281251, 2839.00634765625)">
    <g transform="scale(1.77717)" id="g332">
      <path id="path342" style="fill:url(#linearGradient340);fill-opacity:1;fill-rule:nonzero;stroke:none" d="m 4609.68,7838.47 c -155.27,448.74 -259.51,920 -306.06,1406.16 41.51,-32.18 82.4,-64.93 122.82,-98.19 13.67,-448.58 76.38,-886.46 183.24,-1307.97 m -324.33,1647.44 c -11.02,197.73 -12.51,397.66 -4.01,599.39 v 0 c 0.06,1.5 0.13,3.1 0.19,4.5 0.01,0.3 0.02,0.5 0.02,0.7 0.06,1.3 0.12,2.7 0.18,4 0.01,0.2 0.03,0.6 0.03,0.8 0.06,1.2 0.12,2.6 0.18,3.9 0.01,0.4 0.03,0.8 0.05,1.2 0.05,1.2 0.1,2.3 0.16,3.5 0.02,0.5 0.05,1.1 0.07,1.7 0.05,1 0.09,2 0.14,2.9 0.07,1.6 0.14,3.1 0.21,4.7 v 0 0 c 1.26,26.8 2.73,53.7 4.38,80.6 -14.26,-238.6 -14.54,-474.65 -1.6,-707.89 M 16300,11337.5 c -55.5,160.1 -117.5,317.2 -185.7,471.2 11.3,1.5 22.1,3.6 32.1,6.1 3.5,0.8 7,1.7 10.4,2.7 26.8,-77.9 52,-156.3 75.7,-235.6 24.2,-80.8 46.6,-162.4 67.5,-244.4 m -10673.93,1641 c -12.57,48.5 -33.35,93.7 -62.32,135.8 -65.68,95.3 -143.9,126.3 -222.9,126.3 -8.79,0 -17.59,-0.4 -26.38,-1.1 92.62,137.4 190.62,270.8 293.71,399.8 19.08,-84.8 76.24,-156.4 161.27,-199.7 62.4,-31.8 124.69,-45.1 186.98,-45.1 2.76,0 5.57,0 8.33,0.1 -118.67,-133.4 -231.83,-272.4 -338.69,-416.1 m 245.56,969 c 373.12,408.3 800.38,765 1269.21,1059.2 -6.02,-22.3 -11.87,-44.4 -17.61,-66.1 l -3.1,-11.7 c -56.15,-212 -1.74,-358.2 89.47,-465 -200.43,-130.1 -393.32,-272 -576.98,-424.3 -22.01,30.5 -48.85,54.3 -80.58,71.5 -38.26,20.8 -82.15,31.2 -132.12,31.2 -77.93,0 -170.67,-25.3 -279.88,-76.2 -47.66,-22.2 -96.79,-43.4 -144.33,-64 -40.8,-17.6 -82.44,-35.6 -124.08,-54.6 m 6120.17,1320.9 c -62.1,15.3 -124.7,29.6 -187.6,42.9 5.9,13 11.7,26 17.6,39 34.1,75.6 55.4,91.2 65.1,93.8 1.1,0.3 2.4,0.4 3.8,0.4 8.9,0 22.2,-6 37.6,-17.1 55.9,-40.5 81.3,-77 63.5,-159 m -2285.37,122.3 c -9.79,162.9 -44.17,328.2 -103.14,498.3 253.16,32.3 510.91,48.9 771.81,48.9 0.1,0 0.1,0 0.3,0 v 0 c 125,0 251.1,-3.9 377.5,-11.6 v 0 c 19.8,-1.1 39.6,-2.4 59.6,-3.9 11.5,-0.8 23,-1.7 34.6,-2.6 31.4,-2.4 63.3,-4.8 94.7,-7.9 306.6,-28.2 606,-78.7 896.7,-149.7 -88.3,21.6 -176.9,41.2 -266.8,58.9 -39.8,7.9 -79.9,15.4 -120,22.4 -85.8,-144.6 -147.2,-298.2 -191,-442.2 -56.8,6.8 -113.9,12.9 -171.2,18.1 -31.4,3.2 -63.3,5.6 -94.7,8 -31.5,2.5 -63,4.9 -94.2,6.5 -126.6,7.8 -252.3,11.5 -377.5,11.5 -276.3,0 -549.11,-18.6 -816.67,-54.7 m 2162.67,363.9 -0.5,0.2 0.5,-0.2 m -3.7,1 -0.3,0.1 c 0.2,-0.1 0.2,-0.1 0.3,-0.1 m -5.9,1.4 c -0.5,0.2 -0.9,0.2 -1.4,0.4 0.5,-0.2 0.9,-0.2 1.4,-0.4 m -3.6,1 c -0.8,0.1 -1.4,0.3 -2.2,0.5 0.7,-0.2 1.4,-0.4 2.2,-0.5 m -4,0.9 c -1.2,0.3 -2.1,0.5 -3.3,0.9 1.2,-0.4 2.1,-0.6 3.3,-0.9 m -4,1 c -1.6,0.4 -2.8,0.7 -4.4,1.1 1.3,-0.3 3,-0.7 4.4,-1.1 m -5,1.2 c -1.3,0.3 -2.6,0.7 -3.9,1 1.3,-0.3 2.6,-0.7 3.9,-1"/>
    </g>
  </g>
  <path id="path346" style="fill:#d5f6c2;fill-opacity:1;fill-rule:nonzero;stroke:none" d="M -3470.381 14.432 C -3471.201 14.432 -3472.044 14.409 -3472.888 14.362 C -3650.945 -366.614 -3991.127 -660.706 -4411.492 -772.264 C -4405.024 -801.319 -4412.944 -821.213 -4436.868 -838.529 C -4445.35 -844.644 -4453.645 -847.714 -4461.612 -847.714 C -4464.283 -847.714 -4466.907 -847.386 -4469.508 -846.683 C -4485.84 -842.348 -4495.424 -825.43 -4502.617 -809.473 C -4504.867 -804.529 -4507.093 -799.562 -4509.319 -794.594 C -4533.922 -799.328 -4558.666 -803.428 -4583.738 -806.896 C -4573.1 -840.825 -4558.174 -876.746 -4537.226 -909.902 C -4515.927 -905.684 -4494.932 -901.045 -4474.007 -895.936 C -4473.984 -895.936 -4473.937 -895.913 -4473.89 -895.913 C -4473.562 -895.843 -4473.281 -895.772 -4472.953 -895.679 C -4472.883 -895.679 -4472.883 -895.679 -4472.812 -895.655 C -4472.437 -895.562 -4472.156 -895.491 -4471.781 -895.397 C -4471.711 -895.374 -4471.664 -895.374 -4471.617 -895.351 C -4471.336 -895.28 -4471.102 -895.233 -4470.821 -895.163 C -4470.68 -895.116 -4470.539 -895.093 -4470.399 -895.046 C -4470.211 -895.023 -4470.071 -894.976 -4469.883 -894.929 C -4469.743 -894.905 -4469.508 -894.835 -4469.368 -894.812 C -4469.227 -894.765 -4469.157 -894.741 -4469.016 -894.718 C -4468.595 -894.624 -4468.126 -894.484 -4467.681 -894.39 L -4467.634 -894.366 C -4467.353 -894.296 -4467.118 -894.249 -4466.861 -894.179 L -4466.743 -894.156 C -3995.18 -776.341 -3621.726 -429.739 -3459.836 13.19 C -3463.351 14.034 -3466.866 14.432 -3470.381 14.432"/>
  <path id="path350" style="fill:#d5f6c2;fill-opacity:1;fill-rule:nonzero;stroke:none" d="M -6230.987 636.382 C -6241.304 628.177 -6251.783 620.123 -6262.448 612.223 C -6262.939 605.257 -6263.38 598.273 -6263.769 591.269 C -6266.837 536.004 -6266.769 480.07 -6263.391 423.526 L -6263.391 423.507 C -6262.889 415.32 -6262.317 407.134 -6261.693 398.947 C -6247.746 216.51 -6200.549 44.645 -6126.454 -111.286 C -6101.106 -164.662 -6072.605 -216.187 -6041.216 -265.594 C -6030.955 -269.277 -6022.043 -271.586 -6014.059 -271.586 C -6002.143 -271.586 -5992.294 -266.453 -5983.125 -253.152 C -5973.323 -238.915 -5968.866 -222.637 -5969.743 -203.535 C -6015.805 -137.831 -6056.615 -67.966 -6091.453 5.39 C -6165.545 161.321 -6212.742 333.205 -6226.688 515.623 C -6227.8 530.202 -6228.743 544.782 -6229.424 559.305 C -6230.629 585.105 -6231.144 610.83 -6230.987 636.382"/>
  <path id="path354" style="fill:#d5f6c2;fill-opacity:1;fill-rule:nonzero;stroke:none" d="M -5547.845 -602.93 C -5567.964 -624.712 -5576.483 -651.549 -5565.899 -691.561 L -5565.151 -694.353 C -5561.471 -708.29 -5557.578 -723.012 -5552.977 -737.711 C -5395.005 -830.864 -5218.364 -894.667 -5031.032 -922.218 C -5016.564 -881.768 -5008.31 -842.563 -5006.259 -803.982 C -5201.632 -773.8 -5385.231 -704.16 -5547.845 -602.93"/>
  <path id="path358" style="fill:#d5f6c2;fill-opacity:1;fill-rule:nonzero;stroke:none" d="M -5867.586 -361.777 C -5878.759 -361.797 -5889.28 -364.285 -5899.813 -369.669 C -5908.413 -374.054 -5923.092 -384.393 -5924.772 -404.378 C -5925.932 -418.164 -5920.706 -421.569 -5904.199 -428.503 C -5900.973 -429.869 -5897.798 -431.215 -5894.853 -432.663 C -5879.438 -440.351 -5863.332 -447.305 -5847.76 -454.035 C -5836.334 -458.97 -5824.506 -464.068 -5812.865 -469.493 C -5790.627 -479.853 -5772.32 -485.053 -5758.147 -485.053 C -5750.854 -485.053 -5744.653 -483.666 -5739.561 -480.913 C -5735.201 -478.547 -5731.454 -474.958 -5728.347 -470.186 C -5765.959 -437.782 -5801.947 -403.42 -5836.093 -367.324 C -5847.425 -363.714 -5857.76 -361.777 -5867.586 -361.777"/>
  <path id="path362" style="fill:#cbe3bb;fill-opacity:1;fill-rule:nonzero;stroke:none" d="M -3460.834 40.859 C -3464.757 31.981 -3468.773 23.15 -3472.883 14.365 C -3472.061 14.412 -3471.216 14.436 -3470.394 14.436 C -3466.871 14.436 -3463.347 14.036 -3459.848 13.191 C -3456.748 21.67 -3453.694 30.243 -3450.758 38.792 C -3451.58 39.004 -3452.402 39.215 -3453.201 39.426 C -3455.597 40.013 -3458.157 40.507 -3460.834 40.859 M -4411.51 -772.251 C -4420.177 -774.553 -4428.914 -776.784 -4437.675 -778.922 C -4433.471 -798.369 -4439.484 -807.012 -4452.73 -816.595 C -4456.371 -819.226 -4459.518 -820.659 -4461.632 -820.659 C -4461.961 -820.659 -4462.266 -820.635 -4462.548 -820.565 C -4464.827 -819.954 -4469.9 -816.243 -4477.956 -798.346 C -4479.365 -795.269 -4480.751 -792.192 -4482.137 -789.115 C -4491.179 -791.018 -4500.222 -792.85 -4509.312 -794.611 C -4507.08 -799.567 -4504.873 -804.523 -4502.618 -809.479 C -4495.431 -825.45 -4485.848 -842.337 -4469.5 -846.683 C -4466.917 -847.387 -4464.286 -847.716 -4461.632 -847.716 C -4453.647 -847.716 -4445.355 -844.663 -4436.877 -838.509 C -4412.966 -821.222 -4405.028 -801.328 -4411.51 -772.251 M -4583.72 -806.895 C -4592.762 -808.163 -4601.828 -809.338 -4610.918 -810.418 C -4600.537 -844.545 -4585.974 -880.951 -4565.658 -915.219 C -4556.145 -913.528 -4546.657 -911.766 -4537.215 -909.887 C -4558.165 -876.747 -4573.103 -840.811 -4583.72 -806.895"/>
  <path id="path366" style="fill:#cbe3bb;fill-opacity:1;fill-rule:nonzero;stroke:none" d="M -6230.332 671.708 C -6239.908 663.817 -6249.598 656.06 -6259.433 648.438 C -6260.586 636.388 -6261.589 624.32 -6262.442 612.213 C -6251.775 620.104 -6241.296 628.169 -6230.979 636.369 C -6230.906 648.187 -6230.69 659.948 -6230.332 671.708 M -5969.736 -203.56 C -5968.856 -222.655 -5973.314 -238.919 -5983.117 -253.163 C -5992.285 -266.483 -6002.134 -271.603 -6014.049 -271.603 C -6022.035 -271.603 -6030.947 -269.293 -6041.208 -265.616 C -6034.244 -276.588 -6027.155 -287.405 -6019.91 -298.165 C -6019.908 -298.165 -6019.908 -298.165 -6019.906 -298.165 C -6017.825 -298.338 -6015.737 -298.434 -6013.656 -298.434 C -5994.937 -298.434 -5976.402 -291.101 -5960.838 -268.504 C -5953.972 -258.533 -5949.05 -247.831 -5946.07 -236.321 C -5954.12 -225.503 -5961.983 -214.628 -5969.736 -203.56"/>
  <path id="path370" style="fill:#cbe3bb;fill-opacity:1;fill-rule:nonzero;stroke:none" d="M -5570.843 -588.313 C -5592.456 -613.628 -5605.349 -648.253 -5592.042 -698.514 L -5591.31 -701.286 C -5589.949 -706.414 -5588.561 -711.634 -5587.136 -716.923 C -5587.136 -716.923 -5587.136 -716.946 -5587.122 -716.946 C -5575.855 -724.014 -5564.456 -730.967 -5552.976 -737.711 C -5557.575 -723.021 -5561.469 -708.284 -5565.149 -694.356 L -5565.895 -691.561 C -5576.481 -651.532 -5567.962 -624.716 -5547.842 -602.934 C -5555.561 -598.107 -5563.216 -593.256 -5570.843 -588.313 M -5006.253 -804.003 C -5008.307 -842.577 -5016.562 -881.774 -5031.029 -922.219 C -5021.935 -923.559 -5012.788 -924.829 -5003.641 -925.984 C -4989.669 -885.701 -4981.522 -846.527 -4979.201 -807.907 C -4988.269 -806.682 -4997.241 -805.389 -5006.253 -804.003"/>
  <path id="path374" style="fill:#cbe3bb;fill-opacity:1;fill-rule:nonzero;stroke:none" d="M -5867.792 -334.896 C -5882.554 -334.896 -5897.313 -338.042 -5912.099 -345.587 C -5932.246 -355.846 -5945.793 -372.807 -5950.314 -392.914 C -5950.314 -392.914 -5950.314 -392.914 -5950.314 -392.914 C -5930.3 -417.954 -5909.486 -442.317 -5887.913 -465.939 C -5887.899 -465.939 -5887.899 -465.939 -5887.887 -465.939 C -5878.02 -470.441 -5868.152 -474.697 -5858.485 -478.87 C -5847.219 -483.743 -5835.581 -488.78 -5824.288 -494.043 C -5798.406 -506.09 -5776.433 -512.094 -5757.967 -512.094 C -5746.127 -512.094 -5735.726 -509.626 -5726.66 -504.713 C -5719.139 -500.622 -5712.78 -494.968 -5707.567 -487.752 C -5714.552 -481.954 -5721.46 -476.136 -5728.339 -470.195 C -5731.448 -474.964 -5735.194 -478.562 -5739.554 -480.926 C -5744.647 -483.681 -5750.847 -485.059 -5758.139 -485.059 C -5772.313 -485.059 -5790.62 -479.857 -5812.859 -469.516 C -5824.499 -464.089 -5836.327 -458.99 -5847.754 -454.035 C -5863.327 -447.312 -5879.433 -440.364 -5894.846 -432.675 C -5897.794 -431.235 -5900.966 -429.879 -5904.194 -428.501 C -5920.701 -421.573 -5925.927 -418.181 -5924.767 -404.386 C -5923.085 -384.423 -5908.406 -374.061 -5899.807 -369.682 C -5889.272 -364.316 -5878.754 -361.808 -5867.581 -361.808 C -5857.753 -361.808 -5847.42 -363.741 -5836.086 -367.338 C -5846.166 -356.668 -5856.047 -345.895 -5865.819 -334.917 C -5866.472 -334.917 -5867.141 -334.896 -5867.792 -334.896"/>
  <path id="path378" style="fill:#371a45;fill-opacity:1;fill-rule:nonzero;stroke:none" d="M -4821.316 -910.889 C -5368.799 -910.889 -5865.011 -599.661 -6102.367 -99.85 C -6177.053 57.337 -6221.71 225.843 -6235.1 400.954 C -6236.282 416.46 -6237.161 430.485 -6237.789 443.872 C -6273.779 1215.6 -5698.197 1866.265 -4927.442 1925.184 C -4156.65 1984.118 -3488.887 1428.466 -3407.174 660.243 C -3405.747 646.857 -3404.489 632.855 -3403.303 617.43 C -3389.926 442.297 -3408.456 268.974 -3458.384 102.257 C -3625.463 -456.215 -4108.463 -851.527 -4688.924 -904.841 C -4696.375 -905.567 -4703.704 -906.147 -4710.986 -906.704 C -4718.242 -907.236 -4725.475 -907.792 -4732.66 -908.179 C -4762.316 -909.994 -4791.901 -910.889 -4821.316 -910.889 L -4821.316 -910.889 Z M -4817.324 1982.73 C -4855.254 1982.73 -4893.322 1981.278 -4931.493 1978.371 C -5316.159 1948.97 -5668.572 1773.492 -5923.809 1484.292 C -6178.541 1195.668 -6308.966 825.296 -6291.065 441.378 C -6290.412 427.459 -6289.503 412.904 -6288.279 396.914 C -6274.386 215.224 -6228.046 40.379 -6150.541 -122.733 C -6025.772 -385.46 -5827.504 -603.846 -5577.185 -754.332 C -5321.36 -908.107 -5028.241 -979.733 -4729.612 -961.421 C -4722.258 -961.034 -4714.614 -960.454 -4706.946 -959.873 C -4699.253 -959.293 -4691.513 -958.688 -4683.844 -957.938 C -4386.067 -930.579 -4107.278 -815.218 -3877.837 -624.359 C -3653.354 -437.613 -3490.629 -191.65 -3407.271 86.945 C -3355.48 259.951 -3336.249 439.818 -3350.134 621.496 C -3351.343 637.444 -3352.674 651.963 -3354.125 665.884 C -3394.789 1048.056 -3579.986 1394.305 -3875.587 1640.851 C -4142.426 1863.398 -4473.175 1982.73 -4817.324 1982.73"/>
</svg>